M48
; DRILL file {KiCad 7.0.6} date Fri Jul  7 23:44:48 2023
; FORMAT={-:-/ absolute / inch / decimal}
; #@! TF.CreationDate,2023-07-07T23:44:48+02:00
; #@! TF.GenerationSoftware,Kicad,Pcbnew,7.0.6
; #@! TF.FileFunction,Plated,1,2,PTH
FMAT,2
INCH
; #@! TA.AperFunction,Plated,PTH,ViaDrill
T1C0.0157
; #@! TA.AperFunction,Plated,PTH,ComponentDrill
T2C0.0276
; #@! TA.AperFunction,Plated,PTH,ComponentDrill
T3C0.0579
%
G90
G05
T1
X4.2188Y-5.0312
X4.2812Y-4.4062
X4.4062Y-4.3125
X4.5312Y-4.6562
X4.5312Y-4.8438
X5.125Y-5.0938
X5.2812Y-4.5938
T3
X5.5375Y-4.025
X5.5375Y-4.775
X5.5891Y-3.9675
X5.5891Y-4.7175
X5.7859Y-3.9478
X5.7859Y-4.6978
X5.7875Y-3.925
X5.7875Y-4.675
X6.2875Y-4.025
X6.2875Y-4.775
X6.3391Y-3.9675
X6.3391Y-4.7175
X6.5359Y-3.9478
X6.5359Y-4.6978
X6.5375Y-3.925
X6.5375Y-4.675
T2
G00X3.95Y-3.7842
M15
G01X3.95Y-3.8314
M16
G05
G00X3.95Y-3.9614
M15
G01X3.95Y-4.0086
M16
G05
G00X4.2375Y-3.7842
M15
G01X4.2375Y-3.8314
M16
G05
G00X4.2375Y-3.9614
M15
G01X4.2375Y-4.0086
M16
G05
T0
M30
