%TF.GenerationSoftware,KiCad,Pcbnew,7.0.6*%
%TF.CreationDate,2023-07-07T23:43:39+02:00*%
%TF.ProjectId,ai03-pcb-guide,61693033-2d70-4636-922d-67756964652e,rev?*%
%TF.SameCoordinates,Original*%
%TF.FileFunction,Copper,L2,Bot*%
%TF.FilePolarity,Positive*%
%FSLAX46Y46*%
G04 Gerber Fmt 4.6, Leading zero omitted, Abs format (unit mm)*
G04 Created by KiCad (PCBNEW 7.0.6) date 2023-07-07 23:43:39*
%MOMM*%
%LPD*%
G01*
G04 APERTURE LIST*
G04 Aperture macros list*
%AMRoundRect*
0 Rectangle with rounded corners*
0 $1 Rounding radius*
0 $2 $3 $4 $5 $6 $7 $8 $9 X,Y pos of 4 corners*
0 Add a 4 corners polygon primitive as box body*
4,1,4,$2,$3,$4,$5,$6,$7,$8,$9,$2,$3,0*
0 Add four circle primitives for the rounded corners*
1,1,$1+$1,$2,$3*
1,1,$1+$1,$4,$5*
1,1,$1+$1,$6,$7*
1,1,$1+$1,$8,$9*
0 Add four rect primitives between the rounded corners*
20,1,$1+$1,$2,$3,$4,$5,0*
20,1,$1+$1,$4,$5,$6,$7,0*
20,1,$1+$1,$6,$7,$8,$9,0*
20,1,$1+$1,$8,$9,$2,$3,0*%
%AMHorizOval*
0 Thick line with rounded ends*
0 $1 width*
0 $2 $3 position (X,Y) of the first rounded end (center of the circle)*
0 $4 $5 position (X,Y) of the second rounded end (center of the circle)*
0 Add line between two ends*
20,1,$1,$2,$3,$4,$5,0*
0 Add two circle primitives to create the rounded ends*
1,1,$1,$2,$3*
1,1,$1,$4,$5*%
G04 Aperture macros list end*
%TA.AperFunction,ComponentPad*%
%ADD10HorizOval,2.250000X0.655001X0.730000X-0.655001X-0.730000X0*%
%TD*%
%TA.AperFunction,ComponentPad*%
%ADD11C,2.250000*%
%TD*%
%TA.AperFunction,ComponentPad*%
%ADD12HorizOval,2.250000X0.020000X0.290000X-0.020000X-0.290000X0*%
%TD*%
%TA.AperFunction,SMDPad,CuDef*%
%ADD13RoundRect,0.250000X0.475000X-0.337500X0.475000X0.337500X-0.475000X0.337500X-0.475000X-0.337500X0*%
%TD*%
%TA.AperFunction,SMDPad,CuDef*%
%ADD14RoundRect,0.250000X-0.475000X0.337500X-0.475000X-0.337500X0.475000X-0.337500X0.475000X0.337500X0*%
%TD*%
%TA.AperFunction,SMDPad,CuDef*%
%ADD15R,0.500000X2.250000*%
%TD*%
%TA.AperFunction,ComponentPad*%
%ADD16O,1.700000X2.700000*%
%TD*%
%TA.AperFunction,SMDPad,CuDef*%
%ADD17RoundRect,0.225000X0.375000X-0.225000X0.375000X0.225000X-0.375000X0.225000X-0.375000X-0.225000X0*%
%TD*%
%TA.AperFunction,SMDPad,CuDef*%
%ADD18RoundRect,0.250000X-0.450000X0.262500X-0.450000X-0.262500X0.450000X-0.262500X0.450000X0.262500X0*%
%TD*%
%TA.AperFunction,SMDPad,CuDef*%
%ADD19RoundRect,0.250000X0.337500X0.475000X-0.337500X0.475000X-0.337500X-0.475000X0.337500X-0.475000X0*%
%TD*%
%TA.AperFunction,SMDPad,CuDef*%
%ADD20R,1.500000X0.550000*%
%TD*%
%TA.AperFunction,SMDPad,CuDef*%
%ADD21R,0.550000X1.500000*%
%TD*%
%TA.AperFunction,SMDPad,CuDef*%
%ADD22RoundRect,0.250000X-0.625000X0.375000X-0.625000X-0.375000X0.625000X-0.375000X0.625000X0.375000X0*%
%TD*%
%TA.AperFunction,SMDPad,CuDef*%
%ADD23R,1.800000X1.100000*%
%TD*%
%TA.AperFunction,SMDPad,CuDef*%
%ADD24R,1.400000X1.200000*%
%TD*%
%TA.AperFunction,ViaPad*%
%ADD25C,0.800000*%
%TD*%
%TA.AperFunction,Conductor*%
%ADD26C,0.254000*%
%TD*%
%TA.AperFunction,Conductor*%
%ADD27C,0.381000*%
%TD*%
%TA.AperFunction,Conductor*%
%ADD28C,0.203200*%
%TD*%
%TA.AperFunction,Conductor*%
%ADD29C,0.200000*%
%TD*%
G04 APERTURE END LIST*
D10*
%TO.P,MX2,1,COL*%
%TO.N,COL1*%
X160357501Y-101505000D03*
D11*
X161012500Y-100775000D03*
D12*
%TO.P,MX2,2,ROW*%
%TO.N,Net-(D2-A)*%
X166032500Y-99985000D03*
D11*
X166052500Y-99695000D03*
%TD*%
D10*
%TO.P,MX4,1,COL*%
%TO.N,COL1*%
X160357501Y-120555000D03*
D11*
X161012500Y-119825000D03*
D12*
%TO.P,MX4,2,ROW*%
%TO.N,Net-(D4-A)*%
X166032500Y-119035000D03*
D11*
X166052500Y-118745000D03*
%TD*%
D10*
%TO.P,MX3,1,COL*%
%TO.N,COL0*%
X141307501Y-120555000D03*
D11*
X141962500Y-119825000D03*
D12*
%TO.P,MX3,2,ROW*%
%TO.N,Net-(D3-A)*%
X146982500Y-119035000D03*
D11*
X147002500Y-118745000D03*
%TD*%
D10*
%TO.P,MX1,1,COL*%
%TO.N,COL0*%
X141307501Y-101505000D03*
D11*
X141962500Y-100775000D03*
D12*
%TO.P,MX1,2,ROW*%
%TO.N,Net-(D1-A)*%
X146982500Y-99985000D03*
D11*
X147002500Y-99695000D03*
%TD*%
D13*
%TO.P,C2,1*%
%TO.N,+5V*%
X114300000Y-111368750D03*
%TO.P,C2,2*%
%TO.N,GND*%
X114300000Y-109293750D03*
%TD*%
D14*
%TO.P,C6,1*%
%TO.N,GND*%
X127538750Y-105875000D03*
%TO.P,C6,2*%
%TO.N,Net-(U1-XTAL1)*%
X127538750Y-107950000D03*
%TD*%
D13*
%TO.P,C7,1*%
%TO.N,GND*%
X119156750Y-107950000D03*
%TO.P,C7,2*%
%TO.N,Net-(U1-XTAL2)*%
X119156750Y-105875000D03*
%TD*%
D14*
%TO.P,C5,1*%
%TO.N,+5V*%
X113506250Y-124618750D03*
%TO.P,C5,2*%
%TO.N,GND*%
X113506250Y-126693750D03*
%TD*%
D15*
%TO.P,USB1,1,GND*%
%TO.N,GND*%
X105581250Y-101218750D03*
%TO.P,USB1,2,ID*%
%TO.N,unconnected-(USB1-ID-Pad2)*%
X104781250Y-101218750D03*
%TO.P,USB1,3,D+*%
%TO.N,D +*%
X103981250Y-101218750D03*
%TO.P,USB1,4,D-*%
%TO.N,D -*%
X103181250Y-101218750D03*
%TO.P,USB1,5,VBUS*%
%TO.N,VCC*%
X102381250Y-101218750D03*
D16*
%TO.P,USB1,6,SHIELD*%
%TO.N,unconnected-(USB1-SHIELD-Pad6)*%
X107631250Y-96718750D03*
X100331250Y-96718750D03*
X107631250Y-101218750D03*
X100331250Y-101218750D03*
%TD*%
D17*
%TO.P,D4,1,K*%
%TO.N,ROW1*%
X171450000Y-125412500D03*
%TO.P,D4,2,A*%
%TO.N,Net-(D4-A)*%
X171450000Y-122112500D03*
%TD*%
D13*
%TO.P,C3,1*%
%TO.N,+5V*%
X132862500Y-116800000D03*
%TO.P,C3,2*%
%TO.N,GND*%
X132862500Y-114725000D03*
%TD*%
D17*
%TO.P,D1,1,K*%
%TO.N,ROW0*%
X152400000Y-104775000D03*
%TO.P,D1,2,A*%
%TO.N,Net-(D1-A)*%
X152400000Y-101475000D03*
%TD*%
D18*
%TO.P,R2,1*%
%TO.N,D +*%
X105568750Y-106125000D03*
%TO.P,R2,2*%
%TO.N,Net-(U1-D+)*%
X105568750Y-107950000D03*
%TD*%
D19*
%TO.P,C1,1*%
%TO.N,Net-(U1-UCAP)*%
X113506250Y-119062500D03*
%TO.P,C1,2*%
%TO.N,GND*%
X111431250Y-119062500D03*
%TD*%
D18*
%TO.P,R4,1*%
%TO.N,+5V*%
X110093750Y-109537500D03*
%TO.P,R4,2*%
%TO.N,Net-(U1-~{RESET})*%
X110093750Y-111362500D03*
%TD*%
D17*
%TO.P,D2,1,K*%
%TO.N,ROW0*%
X171450000Y-104837500D03*
%TO.P,D2,2,A*%
%TO.N,Net-(D2-A)*%
X171450000Y-101537500D03*
%TD*%
D20*
%TO.P,U1,1,PE6*%
%TO.N,unconnected-(U1-PE6-Pad1)*%
X117574000Y-123823250D03*
%TO.P,U1,2,UVCC*%
%TO.N,+5V*%
X117574000Y-123023250D03*
%TO.P,U1,3,D-*%
%TO.N,Net-(U1-D-)*%
X117574000Y-122223250D03*
%TO.P,U1,4,D+*%
%TO.N,Net-(U1-D+)*%
X117574000Y-121423250D03*
%TO.P,U1,5,UGND*%
%TO.N,GND*%
X117574000Y-120623250D03*
%TO.P,U1,6,UCAP*%
%TO.N,Net-(U1-UCAP)*%
X117574000Y-119823250D03*
%TO.P,U1,7,VBUS*%
%TO.N,+5V*%
X117574000Y-119023250D03*
%TO.P,U1,8,PB0*%
%TO.N,unconnected-(U1-PB0-Pad8)*%
X117574000Y-118223250D03*
%TO.P,U1,9,PB1*%
%TO.N,unconnected-(U1-PB1-Pad9)*%
X117574000Y-117423250D03*
%TO.P,U1,10,PB2*%
%TO.N,unconnected-(U1-PB2-Pad10)*%
X117574000Y-116623250D03*
%TO.P,U1,11,PB3*%
%TO.N,unconnected-(U1-PB3-Pad11)*%
X117574000Y-115823250D03*
D21*
%TO.P,U1,12,PB7*%
%TO.N,unconnected-(U1-PB7-Pad12)*%
X119274000Y-114123250D03*
%TO.P,U1,13,~{RESET}*%
%TO.N,Net-(U1-~{RESET})*%
X120074000Y-114123250D03*
%TO.P,U1,14,VCC*%
%TO.N,+5V*%
X120874000Y-114123250D03*
%TO.P,U1,15,GND*%
%TO.N,GND*%
X121674000Y-114123250D03*
%TO.P,U1,16,XTAL2*%
%TO.N,Net-(U1-XTAL2)*%
X122474000Y-114123250D03*
%TO.P,U1,17,XTAL1*%
%TO.N,Net-(U1-XTAL1)*%
X123274000Y-114123250D03*
%TO.P,U1,18,PD0*%
%TO.N,unconnected-(U1-PD0-Pad18)*%
X124074000Y-114123250D03*
%TO.P,U1,19,PD1*%
%TO.N,unconnected-(U1-PD1-Pad19)*%
X124874000Y-114123250D03*
%TO.P,U1,20,PD2*%
%TO.N,unconnected-(U1-PD2-Pad20)*%
X125674000Y-114123250D03*
%TO.P,U1,21,PD3*%
%TO.N,unconnected-(U1-PD3-Pad21)*%
X126474000Y-114123250D03*
%TO.P,U1,22,PD5*%
%TO.N,unconnected-(U1-PD5-Pad22)*%
X127274000Y-114123250D03*
D20*
%TO.P,U1,23,GND*%
%TO.N,GND*%
X128974000Y-115823250D03*
%TO.P,U1,24,AVCC*%
%TO.N,+5V*%
X128974000Y-116623250D03*
%TO.P,U1,25,PD4*%
%TO.N,unconnected-(U1-PD4-Pad25)*%
X128974000Y-117423250D03*
%TO.P,U1,26,PD6*%
%TO.N,unconnected-(U1-PD6-Pad26)*%
X128974000Y-118223250D03*
%TO.P,U1,27,PD7*%
%TO.N,ROW0*%
X128974000Y-119023250D03*
%TO.P,U1,28,PB4*%
%TO.N,COL1*%
X128974000Y-119823250D03*
%TO.P,U1,29,PB5*%
%TO.N,COL0*%
X128974000Y-120623250D03*
%TO.P,U1,30,PB6*%
%TO.N,ROW1*%
X128974000Y-121423250D03*
%TO.P,U1,31,PC6*%
%TO.N,unconnected-(U1-PC6-Pad31)*%
X128974000Y-122223250D03*
%TO.P,U1,32,PC7*%
%TO.N,unconnected-(U1-PC7-Pad32)*%
X128974000Y-123023250D03*
%TO.P,U1,33,~{HWB}/PE2*%
%TO.N,Net-(U1-~{HWB}{slash}PE2)*%
X128974000Y-123823250D03*
D21*
%TO.P,U1,34,VCC*%
%TO.N,+5V*%
X127274000Y-125523250D03*
%TO.P,U1,35,GND*%
%TO.N,GND*%
X126474000Y-125523250D03*
%TO.P,U1,36,PF7*%
%TO.N,unconnected-(U1-PF7-Pad36)*%
X125674000Y-125523250D03*
%TO.P,U1,37,PF6*%
%TO.N,unconnected-(U1-PF6-Pad37)*%
X124874000Y-125523250D03*
%TO.P,U1,38,PF5*%
%TO.N,unconnected-(U1-PF5-Pad38)*%
X124074000Y-125523250D03*
%TO.P,U1,39,PF4*%
%TO.N,unconnected-(U1-PF4-Pad39)*%
X123274000Y-125523250D03*
%TO.P,U1,40,PF1*%
%TO.N,unconnected-(U1-PF1-Pad40)*%
X122474000Y-125523250D03*
%TO.P,U1,41,PF0*%
%TO.N,unconnected-(U1-PF0-Pad41)*%
X121674000Y-125523250D03*
%TO.P,U1,42,AREF*%
%TO.N,unconnected-(U1-AREF-Pad42)*%
X120874000Y-125523250D03*
%TO.P,U1,43,GND*%
%TO.N,GND*%
X120074000Y-125523250D03*
%TO.P,U1,44,AVCC*%
%TO.N,+5V*%
X119274000Y-125523250D03*
%TD*%
D22*
%TO.P,F1,1*%
%TO.N,VCC*%
X98425000Y-109912500D03*
%TO.P,F1,2*%
%TO.N,+5V*%
X98425000Y-112712500D03*
%TD*%
D18*
%TO.P,R3,1*%
%TO.N,D -*%
X102393750Y-106125000D03*
%TO.P,R3,2*%
%TO.N,Net-(U1-D-)*%
X102393750Y-107950000D03*
%TD*%
%TO.P,R1,1*%
%TO.N,Net-(U1-~{HWB}{slash}PE2)*%
X132556250Y-124737500D03*
%TO.P,R1,2*%
%TO.N,GND*%
X132556250Y-126562500D03*
%TD*%
D17*
%TO.P,D3,1,K*%
%TO.N,ROW1*%
X152400000Y-124618750D03*
%TO.P,D3,2,A*%
%TO.N,Net-(D3-A)*%
X152400000Y-121318750D03*
%TD*%
D19*
%TO.P,C4,1*%
%TO.N,+5V*%
X128143000Y-129254250D03*
%TO.P,C4,2*%
%TO.N,GND*%
X126068000Y-129254250D03*
%TD*%
D23*
%TO.P,SW1,1,1*%
%TO.N,GND*%
X99293750Y-131762500D03*
%TO.P,SW1,2,2*%
%TO.N,Net-(U1-~{RESET})*%
X105493750Y-128062500D03*
%TO.P,SW1,3*%
%TO.N,N/C*%
X99293750Y-128062500D03*
%TO.P,SW1,4*%
X105493750Y-131762500D03*
%TD*%
D24*
%TO.P,Y1,1,1*%
%TO.N,Net-(U1-XTAL1)*%
X124320750Y-107530000D03*
%TO.P,Y1,2,2*%
%TO.N,GND*%
X122120750Y-107530000D03*
%TO.P,Y1,3,3*%
%TO.N,Net-(U1-XTAL2)*%
X122120750Y-105830000D03*
%TO.P,Y1,4,4*%
%TO.N,GND*%
X124320750Y-105830000D03*
%TD*%
D25*
%TO.N,+5V*%
X115093750Y-118268750D03*
X111918750Y-109537500D03*
X115093750Y-123031250D03*
X134143750Y-116681250D03*
X130175000Y-129381250D03*
%TO.N,Net-(U1-~{RESET})*%
X108743750Y-111918750D03*
X107156250Y-127793750D03*
%TD*%
D26*
%TO.N,Net-(U1-UCAP)*%
X113506250Y-119062500D02*
X115093750Y-119062500D01*
X115093750Y-119062500D02*
X115854500Y-119823250D01*
X115854500Y-119823250D02*
X117574000Y-119823250D01*
D27*
%TO.N,GND*%
X119967000Y-125523250D02*
X120208500Y-125764750D01*
X116681250Y-103981250D02*
X116681250Y-107156250D01*
X126206250Y-131762500D02*
X126206250Y-129392500D01*
X118499000Y-109537500D02*
X121674000Y-112712500D01*
X107156250Y-103668750D02*
X107156250Y-118268750D01*
X127538750Y-105875000D02*
X124365750Y-105875000D01*
X116681250Y-107156250D02*
X117475000Y-107950000D01*
X125961000Y-121992250D02*
X125412500Y-121992250D01*
X96837500Y-129381250D02*
X96837500Y-126206250D01*
X105581250Y-101218750D02*
X105581250Y-102093750D01*
X97631250Y-125412500D02*
X112225000Y-125412500D01*
X121674000Y-114123250D02*
X121674000Y-112712500D01*
X120208500Y-125764750D02*
X120208500Y-128235250D01*
X132556250Y-126562500D02*
X132556250Y-130175000D01*
X111918750Y-120623250D02*
X117574000Y-120623250D01*
D28*
X123211250Y-106976250D02*
X122657500Y-107530000D01*
D27*
X99293750Y-131762500D02*
X99218750Y-131762500D01*
X124365750Y-105875000D02*
X124320750Y-105830000D01*
X126270500Y-115823250D02*
X128974000Y-115823250D01*
X126474000Y-122505250D02*
X125961000Y-121992250D01*
X119856250Y-128587500D02*
X115400000Y-128587500D01*
X121674000Y-115254250D02*
X123101000Y-116681250D01*
X112225000Y-125412500D02*
X113506250Y-126693750D01*
X114300000Y-109293750D02*
X114850000Y-109293750D01*
X96837500Y-126206250D02*
X97631250Y-125412500D01*
X107156250Y-118268750D02*
X109537500Y-120650000D01*
X111431250Y-119062500D02*
X111431250Y-120135750D01*
X125412500Y-116681250D02*
X126270500Y-115823250D01*
X131764250Y-115823250D02*
X128974000Y-115823250D01*
X115093750Y-109537500D02*
X118499000Y-109537500D01*
X126474000Y-125523250D02*
X126474000Y-122505250D01*
X118705000Y-120623250D02*
X117574000Y-120623250D01*
X126068000Y-129254250D02*
X126474000Y-128848250D01*
X125412500Y-121992250D02*
X120074000Y-121992250D01*
X120208500Y-128235250D02*
X119856250Y-128587500D01*
X121674000Y-114123250D02*
X121674000Y-115254250D01*
X120074000Y-125523250D02*
X119967000Y-125523250D01*
X111431250Y-120135750D02*
X111918750Y-120623250D01*
X121674000Y-110467250D02*
X119156750Y-107950000D01*
X124320750Y-104477000D02*
X123825000Y-103981250D01*
X114850000Y-109293750D02*
X115093750Y-109537500D01*
X99218750Y-131762500D02*
X96837500Y-129381250D01*
X109537500Y-120650000D02*
X109564250Y-120623250D01*
X130968750Y-131762500D02*
X126206250Y-131762500D01*
X132556250Y-130175000D02*
X130968750Y-131762500D01*
X120074000Y-121992250D02*
X118705000Y-120623250D01*
X124320750Y-105830000D02*
X124320750Y-104477000D01*
X123825000Y-103981250D02*
X116681250Y-103981250D01*
D28*
X123211250Y-105858500D02*
X123211250Y-106976250D01*
D27*
X132862500Y-114725000D02*
X131764250Y-115823250D01*
X126474000Y-128848250D02*
X126474000Y-125523250D01*
D28*
X124320750Y-105830000D02*
X123239750Y-105830000D01*
X123239750Y-105830000D02*
X123211250Y-105858500D01*
D27*
X115400000Y-128587500D02*
X113506250Y-126693750D01*
X109564250Y-120623250D02*
X111918750Y-120623250D01*
X126206250Y-129392500D02*
X126068000Y-129254250D01*
D28*
X122657500Y-107530000D02*
X122120750Y-107530000D01*
D27*
X120074000Y-125523250D02*
X120074000Y-121992250D01*
X117475000Y-107950000D02*
X119156750Y-107950000D01*
X125412500Y-121992250D02*
X125412500Y-116681250D01*
X121674000Y-112712500D02*
X121674000Y-110467250D01*
X123101000Y-116681250D02*
X125412500Y-116681250D01*
X105581250Y-102093750D02*
X107156250Y-103668750D01*
%TO.N,+5V*%
X127274000Y-128385250D02*
X128143000Y-129254250D01*
X98425000Y-117475000D02*
X105568750Y-124618750D01*
X119274000Y-127582250D02*
X119062500Y-127793750D01*
X115093750Y-123825000D02*
X115093750Y-123031250D01*
X119062500Y-127793750D02*
X115093750Y-123825000D01*
X98425000Y-112712500D02*
X98425000Y-117475000D01*
X118512500Y-111368750D02*
X114300000Y-111368750D01*
X115101750Y-123023250D02*
X117574000Y-123023250D01*
X115101750Y-123023250D02*
X115093750Y-123031250D01*
X130048000Y-129254250D02*
X130175000Y-129381250D01*
X127274000Y-125523250D02*
X127274000Y-128385250D01*
X112712500Y-109537500D02*
X111918750Y-109537500D01*
X114300000Y-111368750D02*
X114300000Y-111125000D01*
X116580106Y-119023250D02*
X115825606Y-118268750D01*
X114300000Y-111125000D02*
X112712500Y-109537500D01*
X128143000Y-129254250D02*
X130048000Y-129254250D01*
X132862500Y-116800000D02*
X132685750Y-116623250D01*
X113506250Y-124618750D02*
X115093750Y-123031250D01*
X132862500Y-116800000D02*
X134025000Y-116800000D01*
X110093750Y-109537500D02*
X111918750Y-109537500D01*
X105568750Y-124618750D02*
X113506250Y-124618750D01*
X115825606Y-118268750D02*
X115093750Y-118268750D01*
X119062500Y-111918750D02*
X118512500Y-111368750D01*
X119800500Y-111918750D02*
X119062500Y-111918750D01*
X134025000Y-116800000D02*
X134143750Y-116681250D01*
X120874000Y-112992250D02*
X119800500Y-111918750D01*
X120874000Y-114123250D02*
X120874000Y-112992250D01*
X119274000Y-125523250D02*
X119274000Y-127582250D01*
X132685750Y-116623250D02*
X128974000Y-116623250D01*
X117574000Y-119023250D02*
X116580106Y-119023250D01*
D26*
%TO.N,Net-(U1-XTAL1)*%
X127538750Y-107950000D02*
X127118750Y-107530000D01*
X124320750Y-109041750D02*
X123274000Y-110088500D01*
X127118750Y-107530000D02*
X124320750Y-107530000D01*
X123274000Y-110088500D02*
X123274000Y-114123250D01*
X124320750Y-107530000D02*
X124320750Y-109041750D01*
%TO.N,Net-(U1-XTAL2)*%
X122020750Y-105830000D02*
X120650000Y-107200750D01*
X122474000Y-109774000D02*
X122474000Y-114123250D01*
X120650000Y-107200750D02*
X120650000Y-107950000D01*
X120650000Y-107950000D02*
X122474000Y-109774000D01*
X122120750Y-105830000D02*
X119201750Y-105830000D01*
X119201750Y-105830000D02*
X119156750Y-105875000D01*
X122120750Y-105830000D02*
X122020750Y-105830000D01*
%TO.N,ROW0*%
X128974000Y-119023250D02*
X137279500Y-119023250D01*
X147800000Y-111125000D02*
X152400000Y-106525000D01*
X156368750Y-108743750D02*
X169068750Y-108743750D01*
X145256250Y-111125000D02*
X147800000Y-111125000D01*
X171450000Y-106362500D02*
X171450000Y-104837500D01*
X169068750Y-108743750D02*
X171450000Y-106362500D01*
X152400000Y-106525000D02*
X152400000Y-104775000D01*
X137318750Y-119062500D02*
X145256250Y-111125000D01*
X152400000Y-104775000D02*
X156368750Y-108743750D01*
X137279500Y-119023250D02*
X137318750Y-119062500D01*
%TO.N,Net-(D1-A)*%
X148782500Y-101475000D02*
X147002500Y-99695000D01*
X152400000Y-101475000D02*
X148782500Y-101475000D01*
%TO.N,Net-(D2-A)*%
X171450000Y-101537500D02*
X167275000Y-101537500D01*
X167275000Y-101537500D02*
X166012500Y-100275000D01*
%TO.N,ROW1*%
X138112500Y-127000000D02*
X150018750Y-127000000D01*
X168275000Y-128587500D02*
X171387500Y-125475000D01*
X152400000Y-124618750D02*
X152400000Y-125412500D01*
X171387500Y-125475000D02*
X171450000Y-125475000D01*
X155575000Y-128587500D02*
X168275000Y-128587500D01*
X150018750Y-127000000D02*
X152400000Y-124618750D01*
X128974000Y-121423250D02*
X132535750Y-121423250D01*
X132535750Y-121423250D02*
X138112500Y-127000000D01*
X152400000Y-125412500D02*
X155575000Y-128587500D01*
%TO.N,Net-(D3-A)*%
X152400000Y-120650000D02*
X152400000Y-121030000D01*
X147257500Y-119062500D02*
X150812500Y-119062500D01*
X147002500Y-118745000D02*
X147002500Y-118807500D01*
X150812500Y-119062500D02*
X152400000Y-120650000D01*
X147002500Y-118807500D02*
X147257500Y-119062500D01*
%TO.N,Net-(D4-A)*%
X169068750Y-119062500D02*
X171450000Y-121443750D01*
X166370000Y-119062500D02*
X169068750Y-119062500D01*
X166052500Y-118745000D02*
X166370000Y-119062500D01*
X171450000Y-121443750D02*
X171450000Y-122237500D01*
D27*
%TO.N,VCC*%
X102393750Y-103187500D02*
X98425000Y-107156250D01*
X102381250Y-103175000D02*
X102393750Y-103187500D01*
X102381250Y-101218750D02*
X102381250Y-103175000D01*
X98425000Y-107156250D02*
X98425000Y-109912500D01*
D26*
%TO.N,COL0*%
X139990750Y-120623250D02*
X140652500Y-121285000D01*
X128974000Y-120623250D02*
X139990750Y-120623250D01*
%TO.N,COL1*%
X142875000Y-114300000D02*
X155487500Y-114300000D01*
X155487500Y-114300000D02*
X161012500Y-119825000D01*
X128974000Y-119823250D02*
X129007000Y-119856250D01*
X137318750Y-119856250D02*
X142875000Y-114300000D01*
X129007000Y-119856250D02*
X137318750Y-119856250D01*
%TO.N,Net-(U1-~{HWB}{slash}PE2)*%
X132556250Y-124737500D02*
X131642000Y-123823250D01*
X131642000Y-123823250D02*
X128974000Y-123823250D01*
D29*
%TO.N,D +*%
X103981250Y-101218750D02*
X103981250Y-104537500D01*
X103981250Y-104537500D02*
X105568750Y-106125000D01*
D26*
%TO.N,Net-(U1-D+)*%
X108743750Y-121443750D02*
X108764250Y-121423250D01*
X103187500Y-115887500D02*
X108743750Y-121443750D01*
X108764250Y-121423250D02*
X117574000Y-121423250D01*
X103187500Y-110331250D02*
X103187500Y-115887500D01*
X105568750Y-107950000D02*
X103187500Y-110331250D01*
D29*
%TO.N,D -*%
X103181250Y-101218750D02*
X103181250Y-105337500D01*
X103181250Y-105337500D02*
X102393750Y-106125000D01*
D26*
%TO.N,Net-(U1-D-)*%
X107950000Y-122237500D02*
X107964250Y-122223250D01*
X102393750Y-116681250D02*
X107950000Y-122237500D01*
X102393750Y-107950000D02*
X102393750Y-116681250D01*
X107964250Y-122223250D02*
X117574000Y-122223250D01*
%TO.N,Net-(U1-~{RESET})*%
X119667250Y-112712500D02*
X112712500Y-112712500D01*
X111362500Y-111362500D02*
X110093750Y-111362500D01*
X108743750Y-111918750D02*
X109537500Y-111918750D01*
X109537500Y-111918750D02*
X110093750Y-111362500D01*
X120074000Y-113119250D02*
X119667250Y-112712500D01*
X105493750Y-128062500D02*
X106887500Y-128062500D01*
X106887500Y-128062500D02*
X107156250Y-127793750D01*
X120074000Y-114123250D02*
X120074000Y-113119250D01*
X112712500Y-112712500D02*
X111362500Y-111362500D01*
%TD*%
%TA.AperFunction,Conductor*%
%TO.N,GND*%
G36*
X98923789Y-96063435D02*
G01*
X98969544Y-96116239D01*
X98980750Y-96167750D01*
X98980750Y-97277716D01*
X98996186Y-97454153D01*
X98996188Y-97454163D01*
X99057344Y-97682405D01*
X99057346Y-97682409D01*
X99057347Y-97682413D01*
X99107281Y-97789496D01*
X99157214Y-97896578D01*
X99157215Y-97896580D01*
X99292755Y-98090152D01*
X99459846Y-98257242D01*
X99459849Y-98257245D01*
X99556634Y-98325015D01*
X99653415Y-98392782D01*
X99653417Y-98392783D01*
X99653420Y-98392785D01*
X99867587Y-98492653D01*
X100095842Y-98553813D01*
X100284168Y-98570289D01*
X100331249Y-98574409D01*
X100331250Y-98574409D01*
X100331251Y-98574409D01*
X100370484Y-98570976D01*
X100566658Y-98553813D01*
X100794913Y-98492653D01*
X101009079Y-98392785D01*
X101202651Y-98257245D01*
X101369745Y-98090151D01*
X101505285Y-97896579D01*
X101605153Y-97682413D01*
X101666313Y-97454158D01*
X101681750Y-97277716D01*
X101681750Y-96167750D01*
X101701435Y-96100711D01*
X101754239Y-96054956D01*
X101805750Y-96043750D01*
X106156750Y-96043750D01*
X106223789Y-96063435D01*
X106269544Y-96116239D01*
X106280750Y-96167750D01*
X106280750Y-97277716D01*
X106296186Y-97454153D01*
X106296188Y-97454163D01*
X106357344Y-97682405D01*
X106357346Y-97682409D01*
X106357347Y-97682413D01*
X106407281Y-97789496D01*
X106457214Y-97896578D01*
X106457215Y-97896580D01*
X106592755Y-98090152D01*
X106759847Y-98257243D01*
X106759849Y-98257245D01*
X106856634Y-98325015D01*
X106953415Y-98392782D01*
X106953417Y-98392783D01*
X106953420Y-98392785D01*
X107167587Y-98492653D01*
X107395842Y-98553813D01*
X107584168Y-98570289D01*
X107631249Y-98574409D01*
X107631250Y-98574409D01*
X107631251Y-98574409D01*
X107670484Y-98570976D01*
X107866658Y-98553813D01*
X108094913Y-98492653D01*
X108309079Y-98392785D01*
X108502651Y-98257245D01*
X108669745Y-98090151D01*
X108805285Y-97896579D01*
X108905153Y-97682413D01*
X108966313Y-97454158D01*
X108981750Y-97277716D01*
X108981749Y-96167750D01*
X109001435Y-96100711D01*
X109054239Y-96054956D01*
X109105750Y-96043750D01*
X134019750Y-96043750D01*
X134086789Y-96063435D01*
X134132544Y-96116239D01*
X134143750Y-96167750D01*
X134143749Y-113833727D01*
X134124064Y-113900766D01*
X134071260Y-113946521D01*
X134002102Y-113956465D01*
X133938546Y-113927440D01*
X133932067Y-113921408D01*
X133805842Y-113795182D01*
X133656624Y-113703143D01*
X133656619Y-113703141D01*
X133490197Y-113647994D01*
X133490190Y-113647993D01*
X133387486Y-113637500D01*
X133112500Y-113637500D01*
X133112500Y-114851000D01*
X133092815Y-114918039D01*
X133040011Y-114963794D01*
X132988500Y-114975000D01*
X131637501Y-114975000D01*
X131637501Y-115112486D01*
X131647994Y-115215197D01*
X131703141Y-115381619D01*
X131703143Y-115381624D01*
X131795184Y-115530845D01*
X131919155Y-115654816D01*
X131919159Y-115654819D01*
X131922156Y-115656668D01*
X131923779Y-115658472D01*
X131924823Y-115659298D01*
X131924681Y-115659476D01*
X131968881Y-115708616D01*
X131980102Y-115777579D01*
X131952259Y-115841661D01*
X131922161Y-115867741D01*
X131918849Y-115869783D01*
X131918843Y-115869788D01*
X131892701Y-115895931D01*
X131831378Y-115929416D01*
X131805020Y-115932250D01*
X130044734Y-115932250D01*
X129977695Y-115912565D01*
X129970425Y-115907518D01*
X129966334Y-115904455D01*
X129966328Y-115904452D01*
X129831482Y-115854158D01*
X129831483Y-115854158D01*
X129771883Y-115847751D01*
X129771881Y-115847750D01*
X129771873Y-115847750D01*
X129771864Y-115847750D01*
X128176129Y-115847750D01*
X128176123Y-115847751D01*
X128116516Y-115854158D01*
X127981671Y-115904452D01*
X127981664Y-115904456D01*
X127866456Y-115990702D01*
X127866455Y-115990703D01*
X127866454Y-115990704D01*
X127841856Y-116023562D01*
X127785924Y-116065432D01*
X127742591Y-116073250D01*
X127724000Y-116073250D01*
X127724000Y-116146094D01*
X127730619Y-116207648D01*
X127730620Y-116234159D01*
X127729909Y-116240764D01*
X127729909Y-116240767D01*
X127723500Y-116300377D01*
X127723500Y-116300383D01*
X127723500Y-116300385D01*
X127723500Y-116946120D01*
X127723501Y-116946129D01*
X127730367Y-117010001D01*
X127730367Y-117036507D01*
X127729909Y-117040766D01*
X127729909Y-117040767D01*
X127723500Y-117100377D01*
X127723500Y-117100379D01*
X127723500Y-117100383D01*
X127723500Y-117746120D01*
X127723501Y-117746129D01*
X127730367Y-117810001D01*
X127730367Y-117836507D01*
X127729909Y-117840766D01*
X127729909Y-117840767D01*
X127723500Y-117900377D01*
X127723500Y-117900379D01*
X127723500Y-117900383D01*
X127723500Y-118546120D01*
X127723501Y-118546129D01*
X127730367Y-118610001D01*
X127730367Y-118636507D01*
X127729909Y-118640766D01*
X127729909Y-118640767D01*
X127723500Y-118700377D01*
X127723500Y-118700379D01*
X127723500Y-118700383D01*
X127723500Y-119346120D01*
X127723501Y-119346129D01*
X127730367Y-119410001D01*
X127730367Y-119436507D01*
X127729909Y-119440766D01*
X127729909Y-119440767D01*
X127723500Y-119500377D01*
X127723500Y-119500379D01*
X127723500Y-119500383D01*
X127723500Y-120146120D01*
X127723501Y-120146129D01*
X127730367Y-120210001D01*
X127730367Y-120236507D01*
X127729909Y-120240766D01*
X127729909Y-120240767D01*
X127723500Y-120300377D01*
X127723500Y-120300382D01*
X127723500Y-120300383D01*
X127723500Y-120946120D01*
X127723501Y-120946129D01*
X127730367Y-121010001D01*
X127730367Y-121036507D01*
X127729909Y-121040766D01*
X127729909Y-121040767D01*
X127723500Y-121100377D01*
X127723500Y-121100379D01*
X127723500Y-121100383D01*
X127723500Y-121746120D01*
X127723501Y-121746129D01*
X127730367Y-121810001D01*
X127730367Y-121836507D01*
X127729909Y-121840766D01*
X127729909Y-121840767D01*
X127723500Y-121900377D01*
X127723500Y-121900379D01*
X127723500Y-121900383D01*
X127723500Y-122546120D01*
X127723501Y-122546129D01*
X127730367Y-122610001D01*
X127730367Y-122636507D01*
X127729909Y-122640766D01*
X127729909Y-122640767D01*
X127723500Y-122700377D01*
X127723500Y-122700379D01*
X127723500Y-122700383D01*
X127723500Y-123346120D01*
X127723501Y-123346129D01*
X127730367Y-123410001D01*
X127730367Y-123436507D01*
X127729909Y-123440766D01*
X127729909Y-123440767D01*
X127723500Y-123500377D01*
X127723500Y-123500379D01*
X127723500Y-123500383D01*
X127723500Y-124148750D01*
X127703815Y-124215789D01*
X127651011Y-124261544D01*
X127599500Y-124272750D01*
X126951129Y-124272750D01*
X126951125Y-124272751D01*
X126903160Y-124277907D01*
X126891517Y-124279159D01*
X126891516Y-124279159D01*
X126884904Y-124279870D01*
X126858393Y-124279869D01*
X126796842Y-124273250D01*
X126724000Y-124273250D01*
X126724000Y-124291840D01*
X126704315Y-124358879D01*
X126674313Y-124391106D01*
X126641451Y-124415706D01*
X126573266Y-124506790D01*
X126517332Y-124548661D01*
X126447641Y-124553645D01*
X126386318Y-124520159D01*
X126374734Y-124506790D01*
X126306548Y-124415706D01*
X126306546Y-124415705D01*
X126306546Y-124415704D01*
X126273686Y-124391105D01*
X126231817Y-124335171D01*
X126224000Y-124291840D01*
X126224000Y-124273250D01*
X126151166Y-124273250D01*
X126089595Y-124279869D01*
X126063088Y-124279869D01*
X126053818Y-124278872D01*
X125996873Y-124272750D01*
X125996865Y-124272750D01*
X125351129Y-124272750D01*
X125351120Y-124272751D01*
X125287248Y-124279617D01*
X125260742Y-124279617D01*
X125256483Y-124279159D01*
X125196873Y-124272750D01*
X125196864Y-124272750D01*
X124551129Y-124272750D01*
X124551120Y-124272751D01*
X124487248Y-124279617D01*
X124460742Y-124279617D01*
X124456483Y-124279159D01*
X124396873Y-124272750D01*
X124396864Y-124272750D01*
X123751129Y-124272750D01*
X123751120Y-124272751D01*
X123687248Y-124279617D01*
X123660742Y-124279617D01*
X123656483Y-124279159D01*
X123596873Y-124272750D01*
X123596864Y-124272750D01*
X122951129Y-124272750D01*
X122951120Y-124272751D01*
X122887248Y-124279617D01*
X122860742Y-124279617D01*
X122856483Y-124279159D01*
X122796873Y-124272750D01*
X122796864Y-124272750D01*
X122151129Y-124272750D01*
X122151120Y-124272751D01*
X122087248Y-124279617D01*
X122060742Y-124279617D01*
X122056483Y-124279159D01*
X121996873Y-124272750D01*
X121996864Y-124272750D01*
X121351129Y-124272750D01*
X121351120Y-124272751D01*
X121287248Y-124279617D01*
X121260742Y-124279617D01*
X121256483Y-124279159D01*
X121196873Y-124272750D01*
X121196864Y-124272750D01*
X120551129Y-124272750D01*
X120551125Y-124272751D01*
X120503160Y-124277907D01*
X120491517Y-124279159D01*
X120491516Y-124279159D01*
X120484904Y-124279870D01*
X120458393Y-124279869D01*
X120396842Y-124273250D01*
X120324000Y-124273250D01*
X120324000Y-124291840D01*
X120304315Y-124358879D01*
X120274313Y-124391106D01*
X120241451Y-124415706D01*
X120173266Y-124506790D01*
X120117332Y-124548661D01*
X120047641Y-124553645D01*
X119986318Y-124520159D01*
X119974734Y-124506790D01*
X119906548Y-124415706D01*
X119906546Y-124415705D01*
X119906546Y-124415704D01*
X119873686Y-124391105D01*
X119831817Y-124335171D01*
X119824000Y-124291840D01*
X119824000Y-124273250D01*
X119751166Y-124273250D01*
X119689595Y-124279869D01*
X119663088Y-124279869D01*
X119651279Y-124278599D01*
X119596873Y-124272750D01*
X119596867Y-124272750D01*
X118948499Y-124272750D01*
X118881460Y-124253065D01*
X118835705Y-124200261D01*
X118824499Y-124148750D01*
X118824499Y-124146132D01*
X118824500Y-124146123D01*
X118824499Y-123500378D01*
X118818091Y-123440767D01*
X118818090Y-123440764D01*
X118817632Y-123436503D01*
X118817633Y-123409994D01*
X118821656Y-123372572D01*
X118824500Y-123346123D01*
X118824499Y-122700378D01*
X118818091Y-122640767D01*
X118818090Y-122640764D01*
X118817632Y-122636503D01*
X118817633Y-122609994D01*
X118818367Y-122603164D01*
X118824500Y-122546123D01*
X118824499Y-121900378D01*
X118818091Y-121840767D01*
X118818090Y-121840764D01*
X118817632Y-121836503D01*
X118817633Y-121809994D01*
X118818367Y-121803164D01*
X118824500Y-121746123D01*
X118824499Y-121100378D01*
X118818091Y-121040767D01*
X118818090Y-121040766D01*
X118817380Y-121034154D01*
X118817381Y-121007643D01*
X118823999Y-120946092D01*
X118824000Y-120946077D01*
X118824000Y-120873250D01*
X118805409Y-120873250D01*
X118738370Y-120853565D01*
X118706144Y-120823563D01*
X118681546Y-120790704D01*
X118590457Y-120722515D01*
X118548588Y-120666583D01*
X118543604Y-120596891D01*
X118577089Y-120535568D01*
X118590452Y-120523988D01*
X118681546Y-120455796D01*
X118706143Y-120422937D01*
X118762076Y-120381068D01*
X118805409Y-120373250D01*
X118824000Y-120373250D01*
X118824000Y-120300422D01*
X118823999Y-120300410D01*
X118817380Y-120238854D01*
X118817380Y-120212340D01*
X118818090Y-120205735D01*
X118818091Y-120205733D01*
X118824500Y-120146123D01*
X118824499Y-119500378D01*
X118818091Y-119440767D01*
X118818090Y-119440764D01*
X118817632Y-119436503D01*
X118817633Y-119409994D01*
X118818367Y-119403164D01*
X118824500Y-119346123D01*
X118824499Y-118700378D01*
X118818091Y-118640767D01*
X118818090Y-118640764D01*
X118817632Y-118636503D01*
X118817633Y-118609994D01*
X118818367Y-118603164D01*
X118824500Y-118546123D01*
X118824499Y-117900378D01*
X118818091Y-117840767D01*
X118818090Y-117840764D01*
X118817632Y-117836503D01*
X118817633Y-117809994D01*
X118819288Y-117794600D01*
X118824500Y-117746123D01*
X118824499Y-117100378D01*
X118818091Y-117040767D01*
X118818090Y-117040764D01*
X118817632Y-117036503D01*
X118817633Y-117009994D01*
X118818367Y-117003164D01*
X118824500Y-116946123D01*
X118824499Y-116300378D01*
X118818091Y-116240767D01*
X118818090Y-116240764D01*
X118817632Y-116236503D01*
X118817633Y-116209994D01*
X118818367Y-116203164D01*
X118824500Y-116146123D01*
X118824499Y-115500378D01*
X118824499Y-115500377D01*
X118824499Y-115497749D01*
X118844183Y-115430710D01*
X118896987Y-115384955D01*
X118948499Y-115373749D01*
X118951118Y-115373749D01*
X118951127Y-115373750D01*
X119596872Y-115373749D01*
X119656483Y-115367341D01*
X119656487Y-115367339D01*
X119660743Y-115366882D01*
X119687253Y-115366882D01*
X119691514Y-115367340D01*
X119691517Y-115367341D01*
X119751127Y-115373750D01*
X120396872Y-115373749D01*
X120456483Y-115367341D01*
X120456487Y-115367339D01*
X120460743Y-115366882D01*
X120487253Y-115366882D01*
X120491514Y-115367340D01*
X120491517Y-115367341D01*
X120551127Y-115373750D01*
X121196872Y-115373749D01*
X121256483Y-115367341D01*
X121256483Y-115367340D01*
X121263096Y-115366630D01*
X121289607Y-115366631D01*
X121351157Y-115373249D01*
X121351172Y-115373250D01*
X121424000Y-115373250D01*
X121424000Y-115354659D01*
X121443685Y-115287620D01*
X121473691Y-115255391D01*
X121506546Y-115230796D01*
X121574734Y-115139707D01*
X121630667Y-115097838D01*
X121700358Y-115092854D01*
X121761681Y-115126339D01*
X121773261Y-115139702D01*
X121811440Y-115190702D01*
X121841454Y-115230796D01*
X121874310Y-115255392D01*
X121916181Y-115311326D01*
X121923999Y-115354657D01*
X121923999Y-115373249D01*
X121924000Y-115373250D01*
X121996828Y-115373250D01*
X121996839Y-115373249D01*
X122058395Y-115366630D01*
X122084909Y-115366630D01*
X122091514Y-115367340D01*
X122091517Y-115367341D01*
X122151127Y-115373750D01*
X122796872Y-115373749D01*
X122856483Y-115367341D01*
X122856487Y-115367339D01*
X122860743Y-115366882D01*
X122887253Y-115366882D01*
X122891514Y-115367340D01*
X122891517Y-115367341D01*
X122951127Y-115373750D01*
X123596872Y-115373749D01*
X123656483Y-115367341D01*
X123656487Y-115367339D01*
X123660743Y-115366882D01*
X123687253Y-115366882D01*
X123691514Y-115367340D01*
X123691517Y-115367341D01*
X123751127Y-115373750D01*
X124396872Y-115373749D01*
X124456483Y-115367341D01*
X124456487Y-115367339D01*
X124460743Y-115366882D01*
X124487253Y-115366882D01*
X124491514Y-115367340D01*
X124491517Y-115367341D01*
X124551127Y-115373750D01*
X125196872Y-115373749D01*
X125256483Y-115367341D01*
X125256487Y-115367339D01*
X125260743Y-115366882D01*
X125287253Y-115366882D01*
X125291514Y-115367340D01*
X125291517Y-115367341D01*
X125351127Y-115373750D01*
X125996872Y-115373749D01*
X126056483Y-115367341D01*
X126056487Y-115367339D01*
X126060743Y-115366882D01*
X126087253Y-115366882D01*
X126091514Y-115367340D01*
X126091517Y-115367341D01*
X126151127Y-115373750D01*
X126796872Y-115373749D01*
X126856483Y-115367341D01*
X126856487Y-115367339D01*
X126860743Y-115366882D01*
X126887253Y-115366882D01*
X126891514Y-115367340D01*
X126891517Y-115367341D01*
X126951127Y-115373750D01*
X127596872Y-115373749D01*
X127599999Y-115373749D01*
X127667038Y-115393433D01*
X127712793Y-115446237D01*
X127723999Y-115497748D01*
X127723999Y-115573249D01*
X127724000Y-115573250D01*
X128724000Y-115573250D01*
X128724000Y-115573249D01*
X129223999Y-115573249D01*
X129224000Y-115573250D01*
X130224000Y-115573250D01*
X130224000Y-115500422D01*
X130223999Y-115500405D01*
X130217598Y-115440877D01*
X130217596Y-115440870D01*
X130167354Y-115306163D01*
X130167350Y-115306156D01*
X130081190Y-115191062D01*
X130081187Y-115191059D01*
X129966093Y-115104899D01*
X129966086Y-115104895D01*
X129831379Y-115054653D01*
X129831372Y-115054651D01*
X129771844Y-115048250D01*
X129224000Y-115048250D01*
X129223999Y-115573249D01*
X128724000Y-115573249D01*
X128724000Y-115048250D01*
X128173500Y-115048250D01*
X128106461Y-115028565D01*
X128060706Y-114975761D01*
X128049500Y-114924250D01*
X128049500Y-114475000D01*
X131637500Y-114475000D01*
X132612500Y-114475000D01*
X132612499Y-113637500D01*
X132337529Y-113637500D01*
X132337512Y-113637501D01*
X132234802Y-113647994D01*
X132068380Y-113703141D01*
X132068375Y-113703143D01*
X131919154Y-113795184D01*
X131795184Y-113919154D01*
X131703143Y-114068375D01*
X131703141Y-114068380D01*
X131647994Y-114234802D01*
X131647993Y-114234809D01*
X131637500Y-114337513D01*
X131637500Y-114475000D01*
X128049500Y-114475000D01*
X128049499Y-113325379D01*
X128049498Y-113325373D01*
X128043091Y-113265766D01*
X127992797Y-113130921D01*
X127992793Y-113130914D01*
X127906547Y-113015705D01*
X127906544Y-113015702D01*
X127791335Y-112929456D01*
X127791328Y-112929452D01*
X127656486Y-112879160D01*
X127656485Y-112879159D01*
X127656483Y-112879159D01*
X127596873Y-112872750D01*
X127596863Y-112872750D01*
X126951129Y-112872750D01*
X126951120Y-112872751D01*
X126887248Y-112879617D01*
X126860742Y-112879617D01*
X126856483Y-112879159D01*
X126796873Y-112872750D01*
X126796864Y-112872750D01*
X126151129Y-112872750D01*
X126151120Y-112872751D01*
X126087248Y-112879617D01*
X126060742Y-112879617D01*
X126056483Y-112879159D01*
X125996873Y-112872750D01*
X125996864Y-112872750D01*
X125351129Y-112872750D01*
X125351120Y-112872751D01*
X125287248Y-112879617D01*
X125260742Y-112879617D01*
X125256483Y-112879159D01*
X125196873Y-112872750D01*
X125196864Y-112872750D01*
X124551129Y-112872750D01*
X124551120Y-112872751D01*
X124487248Y-112879617D01*
X124460742Y-112879617D01*
X124456483Y-112879159D01*
X124396873Y-112872750D01*
X124396867Y-112872750D01*
X124025499Y-112872750D01*
X123958460Y-112853065D01*
X123912705Y-112800261D01*
X123901499Y-112748750D01*
X123901499Y-111652685D01*
X123901499Y-110399776D01*
X123921184Y-110332741D01*
X123937809Y-110312109D01*
X124705793Y-109544124D01*
X124718075Y-109534287D01*
X124717894Y-109534068D01*
X124723902Y-109529096D01*
X124723912Y-109529090D01*
X124771427Y-109478491D01*
X124792373Y-109457546D01*
X124796642Y-109452040D01*
X124800426Y-109447609D01*
X124832443Y-109413517D01*
X124842139Y-109395878D01*
X124852823Y-109379611D01*
X124865158Y-109363712D01*
X124883733Y-109320785D01*
X124886291Y-109315566D01*
X124908822Y-109274584D01*
X124913826Y-109255088D01*
X124920128Y-109236683D01*
X124928124Y-109218209D01*
X124935440Y-109172009D01*
X124936618Y-109166322D01*
X124948250Y-109121022D01*
X124948250Y-109100891D01*
X124949777Y-109081491D01*
X124951780Y-109068844D01*
X124952925Y-109061617D01*
X124948525Y-109015071D01*
X124948250Y-109009233D01*
X124948250Y-108754482D01*
X124967935Y-108687443D01*
X125020739Y-108641688D01*
X125065632Y-108630659D01*
X125068621Y-108630499D01*
X125068622Y-108630499D01*
X125128233Y-108624091D01*
X125263081Y-108573796D01*
X125378296Y-108487546D01*
X125464546Y-108372331D01*
X125514585Y-108238167D01*
X125556457Y-108182233D01*
X125621921Y-108157816D01*
X125630768Y-108157500D01*
X126189251Y-108157500D01*
X126256290Y-108177185D01*
X126302045Y-108229989D01*
X126313251Y-108281500D01*
X126313251Y-108337518D01*
X126323750Y-108440296D01*
X126323751Y-108440299D01*
X126378935Y-108606831D01*
X126378937Y-108606836D01*
X126413818Y-108663388D01*
X126471038Y-108756156D01*
X126595094Y-108880212D01*
X126744416Y-108972314D01*
X126910953Y-109027499D01*
X127013741Y-109038000D01*
X128063758Y-109037999D01*
X128063766Y-109037998D01*
X128063769Y-109037998D01*
X128120052Y-109032248D01*
X128166547Y-109027499D01*
X128333084Y-108972314D01*
X128482406Y-108880212D01*
X128606462Y-108756156D01*
X128698564Y-108606834D01*
X128753749Y-108440297D01*
X128764250Y-108337509D01*
X128764249Y-107562492D01*
X128761410Y-107534704D01*
X128753749Y-107459703D01*
X128753748Y-107459700D01*
X128723417Y-107368168D01*
X128698564Y-107293166D01*
X128606462Y-107143844D01*
X128482406Y-107019788D01*
X128479092Y-107017743D01*
X128477296Y-107015748D01*
X128476739Y-107015307D01*
X128476814Y-107015211D01*
X128432368Y-106965797D01*
X128421147Y-106896834D01*
X128448990Y-106832752D01*
X128479098Y-106806665D01*
X128482092Y-106804818D01*
X128606065Y-106680845D01*
X128698106Y-106531624D01*
X128698108Y-106531619D01*
X128753255Y-106365197D01*
X128753256Y-106365190D01*
X128763749Y-106262486D01*
X128763750Y-106262473D01*
X128763750Y-106125000D01*
X126313751Y-106125000D01*
X126313751Y-106262486D01*
X126324244Y-106365197D01*
X126379391Y-106531619D01*
X126379393Y-106531624D01*
X126471434Y-106680845D01*
X126481408Y-106690819D01*
X126514893Y-106752142D01*
X126509909Y-106821834D01*
X126468037Y-106877767D01*
X126402573Y-106902184D01*
X126393727Y-106902500D01*
X125630768Y-106902500D01*
X125563729Y-106882815D01*
X125517974Y-106830011D01*
X125514586Y-106821833D01*
X125477581Y-106722618D01*
X125472597Y-106652927D01*
X125477581Y-106635951D01*
X125514347Y-106537376D01*
X125514348Y-106537372D01*
X125520749Y-106477844D01*
X125520750Y-106477827D01*
X125520750Y-106080000D01*
X124194750Y-106080000D01*
X124127711Y-106060315D01*
X124081956Y-106007511D01*
X124070750Y-105956000D01*
X124070750Y-105625000D01*
X126313750Y-105625000D01*
X127288749Y-105625000D01*
X127288749Y-104787500D01*
X127788750Y-104787500D01*
X127788750Y-105625000D01*
X128763749Y-105625000D01*
X128763749Y-105487528D01*
X128763748Y-105487513D01*
X128753255Y-105384802D01*
X128698108Y-105218380D01*
X128698106Y-105218375D01*
X128606065Y-105069154D01*
X128482095Y-104945184D01*
X128332874Y-104853143D01*
X128332869Y-104853141D01*
X128166447Y-104797994D01*
X128166440Y-104797993D01*
X128063736Y-104787500D01*
X127788750Y-104787500D01*
X127288749Y-104787500D01*
X127013779Y-104787500D01*
X127013762Y-104787501D01*
X126911052Y-104797994D01*
X126744630Y-104853141D01*
X126744625Y-104853143D01*
X126595404Y-104945184D01*
X126471434Y-105069154D01*
X126379393Y-105218375D01*
X126379391Y-105218380D01*
X126324244Y-105384802D01*
X126324243Y-105384809D01*
X126313750Y-105487513D01*
X126313750Y-105625000D01*
X124070750Y-105625000D01*
X124070750Y-104730000D01*
X124570750Y-104730000D01*
X124570750Y-105580000D01*
X125520750Y-105580000D01*
X125520750Y-105182172D01*
X125520749Y-105182155D01*
X125514348Y-105122627D01*
X125514346Y-105122620D01*
X125464104Y-104987913D01*
X125464100Y-104987906D01*
X125377940Y-104872812D01*
X125377937Y-104872809D01*
X125262843Y-104786649D01*
X125262836Y-104786645D01*
X125128129Y-104736403D01*
X125128122Y-104736401D01*
X125068594Y-104730000D01*
X124570750Y-104730000D01*
X124070750Y-104730000D01*
X123572905Y-104730000D01*
X123513377Y-104736401D01*
X123513370Y-104736403D01*
X123378663Y-104786645D01*
X123378660Y-104786647D01*
X123295477Y-104848918D01*
X123230012Y-104873335D01*
X123161739Y-104858483D01*
X123146856Y-104848918D01*
X123063081Y-104786204D01*
X123063078Y-104786202D01*
X122928232Y-104735908D01*
X122928233Y-104735908D01*
X122868633Y-104729501D01*
X122868631Y-104729500D01*
X122868623Y-104729500D01*
X122868614Y-104729500D01*
X121372879Y-104729500D01*
X121372873Y-104729501D01*
X121313266Y-104735908D01*
X121178421Y-104786202D01*
X121178414Y-104786206D01*
X121063205Y-104872452D01*
X121063202Y-104872455D01*
X120976956Y-104987664D01*
X120976952Y-104987671D01*
X120926914Y-105121833D01*
X120885043Y-105177767D01*
X120819579Y-105202184D01*
X120810732Y-105202500D01*
X120376108Y-105202500D01*
X120309069Y-105182815D01*
X120270569Y-105143596D01*
X120224462Y-105068844D01*
X120100407Y-104944789D01*
X120100406Y-104944788D01*
X119983130Y-104872452D01*
X119951086Y-104852687D01*
X119951081Y-104852685D01*
X119939710Y-104848917D01*
X119784547Y-104797501D01*
X119784545Y-104797500D01*
X119681760Y-104787000D01*
X118631748Y-104787000D01*
X118631730Y-104787001D01*
X118528953Y-104797500D01*
X118528950Y-104797501D01*
X118362418Y-104852685D01*
X118362413Y-104852687D01*
X118213092Y-104944789D01*
X118089039Y-105068842D01*
X117996937Y-105218163D01*
X117996935Y-105218168D01*
X117996865Y-105218380D01*
X117941751Y-105384703D01*
X117941751Y-105384704D01*
X117941750Y-105384704D01*
X117931250Y-105487483D01*
X117931250Y-106262501D01*
X117931251Y-106262519D01*
X117941750Y-106365296D01*
X117941751Y-106365299D01*
X117965682Y-106437516D01*
X117996936Y-106531834D01*
X118089038Y-106681156D01*
X118213094Y-106805212D01*
X118215450Y-106806665D01*
X118216403Y-106807253D01*
X118218195Y-106809246D01*
X118218761Y-106809693D01*
X118218684Y-106809789D01*
X118263129Y-106859199D01*
X118274353Y-106928161D01*
X118246511Y-106992244D01*
X118216415Y-107018326D01*
X118213410Y-107020179D01*
X118213405Y-107020183D01*
X118089434Y-107144154D01*
X117997393Y-107293375D01*
X117997391Y-107293380D01*
X117942244Y-107459802D01*
X117942243Y-107459809D01*
X117931750Y-107562513D01*
X117931750Y-107700000D01*
X119282750Y-107700000D01*
X119349789Y-107719685D01*
X119395544Y-107772489D01*
X119406750Y-107824000D01*
X119406750Y-109037499D01*
X119681722Y-109037499D01*
X119681736Y-109037498D01*
X119784447Y-109027005D01*
X119950869Y-108971858D01*
X119950874Y-108971856D01*
X120100095Y-108879815D01*
X120224067Y-108755843D01*
X120273109Y-108676333D01*
X120325056Y-108629608D01*
X120394019Y-108618385D01*
X120458101Y-108646228D01*
X120466329Y-108653748D01*
X121810181Y-109997599D01*
X121843666Y-110058922D01*
X121846500Y-110085280D01*
X121846500Y-112967691D01*
X121826815Y-113034730D01*
X121821766Y-113042003D01*
X121788557Y-113086364D01*
X121732623Y-113128234D01*
X121662932Y-113133218D01*
X121601609Y-113099732D01*
X121568124Y-113038409D01*
X121565517Y-113004569D01*
X121568805Y-112950222D01*
X121557781Y-112890068D01*
X121557217Y-112886363D01*
X121556342Y-112879160D01*
X121549848Y-112825668D01*
X121546359Y-112816468D01*
X121540331Y-112794846D01*
X121538557Y-112785165D01*
X121513459Y-112729399D01*
X121512025Y-112725937D01*
X121503289Y-112702901D01*
X121490344Y-112668768D01*
X121484754Y-112660670D01*
X121473725Y-112641115D01*
X121469688Y-112632145D01*
X121469687Y-112632143D01*
X121431974Y-112584005D01*
X121429767Y-112581005D01*
X121395020Y-112530667D01*
X121395020Y-112530666D01*
X121349236Y-112490106D01*
X121346542Y-112487570D01*
X120305186Y-111446214D01*
X120302635Y-111443503D01*
X120262083Y-111397730D01*
X120211751Y-111362988D01*
X120208734Y-111360768D01*
X120160608Y-111323064D01*
X120160599Y-111323058D01*
X120151634Y-111319024D01*
X120132086Y-111308000D01*
X120123982Y-111302406D01*
X120123978Y-111302403D01*
X120075189Y-111283900D01*
X120066802Y-111280719D01*
X120063351Y-111279290D01*
X120007581Y-111254191D01*
X120007582Y-111254191D01*
X119997895Y-111252416D01*
X119976292Y-111246394D01*
X119967082Y-111242902D01*
X119906376Y-111235530D01*
X119902677Y-111234967D01*
X119889711Y-111232591D01*
X119842530Y-111223945D01*
X119842525Y-111223945D01*
X119781492Y-111227637D01*
X119777747Y-111227750D01*
X119400084Y-111227750D01*
X119333045Y-111208065D01*
X119312403Y-111191431D01*
X119178577Y-111057605D01*
X119017186Y-110896214D01*
X119014635Y-110893503D01*
X118974083Y-110847730D01*
X118923751Y-110812988D01*
X118920734Y-110810768D01*
X118872608Y-110773064D01*
X118872599Y-110773058D01*
X118863634Y-110769024D01*
X118844086Y-110758000D01*
X118835982Y-110752406D01*
X118835978Y-110752403D01*
X118787189Y-110733900D01*
X118778802Y-110730719D01*
X118775351Y-110729290D01*
X118719581Y-110704191D01*
X118719582Y-110704191D01*
X118709895Y-110702416D01*
X118688292Y-110696394D01*
X118679082Y-110692902D01*
X118618376Y-110685530D01*
X118614677Y-110684967D01*
X118601711Y-110682591D01*
X118554530Y-110673945D01*
X118554525Y-110673945D01*
X118493492Y-110677637D01*
X118489747Y-110677750D01*
X115507947Y-110677750D01*
X115440908Y-110658065D01*
X115402409Y-110618849D01*
X115367712Y-110562594D01*
X115243656Y-110438538D01*
X115240342Y-110436493D01*
X115238546Y-110434498D01*
X115237989Y-110434057D01*
X115238064Y-110433961D01*
X115193618Y-110384547D01*
X115182397Y-110315584D01*
X115210240Y-110251502D01*
X115240348Y-110225415D01*
X115243342Y-110223568D01*
X115367315Y-110099595D01*
X115459356Y-109950374D01*
X115459358Y-109950369D01*
X115514505Y-109783947D01*
X115514506Y-109783940D01*
X115524999Y-109681236D01*
X115525000Y-109681223D01*
X115525000Y-109543750D01*
X114174000Y-109543750D01*
X114106961Y-109524065D01*
X114061206Y-109471261D01*
X114050000Y-109419750D01*
X114050000Y-108206250D01*
X114550000Y-108206250D01*
X114550000Y-109043750D01*
X115524999Y-109043750D01*
X115524999Y-108906278D01*
X115524998Y-108906263D01*
X115514505Y-108803552D01*
X115459358Y-108637130D01*
X115459356Y-108637125D01*
X115367315Y-108487904D01*
X115243345Y-108363934D01*
X115094124Y-108271893D01*
X115094119Y-108271891D01*
X114927697Y-108216744D01*
X114927690Y-108216743D01*
X114824986Y-108206250D01*
X114550000Y-108206250D01*
X114050000Y-108206250D01*
X113775029Y-108206250D01*
X113775012Y-108206251D01*
X113672302Y-108216744D01*
X113505880Y-108271891D01*
X113505875Y-108271893D01*
X113356654Y-108363934D01*
X113232684Y-108487904D01*
X113140643Y-108637125D01*
X113140641Y-108637130D01*
X113087193Y-108798426D01*
X113047420Y-108855871D01*
X112982904Y-108882694D01*
X112927155Y-108873856D01*
X112926745Y-108875174D01*
X112919582Y-108872941D01*
X112909895Y-108871166D01*
X112888292Y-108865144D01*
X112879082Y-108861652D01*
X112818376Y-108854280D01*
X112814677Y-108853717D01*
X112801711Y-108851341D01*
X112754530Y-108842695D01*
X112754525Y-108842695D01*
X112693492Y-108846387D01*
X112689747Y-108846500D01*
X112539982Y-108846500D01*
X112472943Y-108826815D01*
X112467097Y-108822818D01*
X112371484Y-108753351D01*
X112371479Y-108753348D01*
X112198557Y-108676357D01*
X112198552Y-108676355D01*
X112035451Y-108641688D01*
X112013396Y-108637000D01*
X111824104Y-108637000D01*
X111802049Y-108641688D01*
X111638947Y-108676355D01*
X111638942Y-108676357D01*
X111466020Y-108753348D01*
X111466015Y-108753351D01*
X111370403Y-108822818D01*
X111304597Y-108846298D01*
X111297518Y-108846500D01*
X111227980Y-108846500D01*
X111160941Y-108826815D01*
X111140299Y-108810181D01*
X111012407Y-108682289D01*
X111012406Y-108682288D01*
X110890070Y-108606831D01*
X110863086Y-108590187D01*
X110863081Y-108590185D01*
X110812282Y-108573352D01*
X110696547Y-108535001D01*
X110696545Y-108535000D01*
X110593760Y-108524500D01*
X109593748Y-108524500D01*
X109593730Y-108524501D01*
X109490953Y-108535000D01*
X109490950Y-108535001D01*
X109324418Y-108590185D01*
X109324413Y-108590187D01*
X109175092Y-108682289D01*
X109051039Y-108806342D01*
X108958937Y-108955663D01*
X108958935Y-108955668D01*
X108940215Y-109012163D01*
X108903751Y-109122203D01*
X108903751Y-109122204D01*
X108903750Y-109122204D01*
X108893250Y-109224983D01*
X108893250Y-109850001D01*
X108893251Y-109850019D01*
X108903750Y-109952796D01*
X108903751Y-109952799D01*
X108952395Y-110099595D01*
X108958936Y-110119334D01*
X109048671Y-110264819D01*
X109051039Y-110268657D01*
X109144701Y-110362319D01*
X109178186Y-110423642D01*
X109173202Y-110493334D01*
X109144701Y-110537681D01*
X109051039Y-110631342D01*
X108958937Y-110780663D01*
X108958935Y-110780668D01*
X108946534Y-110818092D01*
X108908372Y-110933256D01*
X108868602Y-110990699D01*
X108804086Y-111017522D01*
X108790668Y-111018250D01*
X108649104Y-111018250D01*
X108616647Y-111025148D01*
X108463947Y-111057605D01*
X108463942Y-111057607D01*
X108291020Y-111134598D01*
X108291015Y-111134601D01*
X108137879Y-111245861D01*
X108011216Y-111386535D01*
X107916571Y-111550465D01*
X107916568Y-111550472D01*
X107883357Y-111652687D01*
X107858076Y-111730494D01*
X107838290Y-111918750D01*
X107858076Y-112107006D01*
X107858077Y-112107009D01*
X107916568Y-112287027D01*
X107916571Y-112287034D01*
X108011217Y-112450966D01*
X108098974Y-112548430D01*
X108137879Y-112591638D01*
X108291015Y-112702898D01*
X108291020Y-112702901D01*
X108463942Y-112779892D01*
X108463947Y-112779894D01*
X108649104Y-112819250D01*
X108649105Y-112819250D01*
X108838394Y-112819250D01*
X108838396Y-112819250D01*
X109023553Y-112779894D01*
X109196480Y-112702901D01*
X109349621Y-112591638D01*
X109353549Y-112587275D01*
X109413036Y-112550629D01*
X109445697Y-112546250D01*
X109454533Y-112546250D01*
X109470181Y-112547977D01*
X109470208Y-112547696D01*
X109477975Y-112548430D01*
X109477976Y-112548429D01*
X109477977Y-112548430D01*
X109547360Y-112546250D01*
X109576976Y-112546250D01*
X109583878Y-112545377D01*
X109589690Y-112544919D01*
X109636443Y-112543451D01*
X109655772Y-112537834D01*
X109674828Y-112533887D01*
X109694793Y-112531366D01*
X109738270Y-112514151D01*
X109743776Y-112512266D01*
X109788691Y-112499218D01*
X109806015Y-112488971D01*
X109823483Y-112480413D01*
X109842203Y-112473003D01*
X109880042Y-112445509D01*
X109884891Y-112442324D01*
X109925156Y-112418513D01*
X109931848Y-112411820D01*
X109993169Y-112378334D01*
X110019532Y-112375499D01*
X110593752Y-112375499D01*
X110593758Y-112375499D01*
X110696547Y-112364999D01*
X110863084Y-112309814D01*
X111012406Y-112217712D01*
X111083671Y-112146446D01*
X111144990Y-112112964D01*
X111214682Y-112117948D01*
X111259030Y-112146449D01*
X112210124Y-113097543D01*
X112219971Y-113109833D01*
X112220189Y-113109654D01*
X112225157Y-113115660D01*
X112275757Y-113163177D01*
X112296701Y-113184120D01*
X112296707Y-113184126D01*
X112302197Y-113188383D01*
X112306648Y-113192184D01*
X112340735Y-113224195D01*
X112340737Y-113224196D01*
X112358367Y-113233887D01*
X112374635Y-113244572D01*
X112390538Y-113256908D01*
X112390540Y-113256909D01*
X112390542Y-113256910D01*
X112411008Y-113265766D01*
X112433443Y-113275474D01*
X112438690Y-113278045D01*
X112460234Y-113289889D01*
X112479666Y-113300572D01*
X112499167Y-113305579D01*
X112517565Y-113311878D01*
X112536041Y-113319873D01*
X112582240Y-113327190D01*
X112587914Y-113328365D01*
X112633228Y-113340000D01*
X112653364Y-113340000D01*
X112672763Y-113341527D01*
X112692633Y-113344674D01*
X112739171Y-113340274D01*
X112745008Y-113340000D01*
X118374500Y-113340000D01*
X118441539Y-113359685D01*
X118487294Y-113412489D01*
X118498500Y-113464000D01*
X118498500Y-114923750D01*
X118478815Y-114990789D01*
X118426011Y-115036544D01*
X118374500Y-115047750D01*
X116776129Y-115047750D01*
X116776123Y-115047751D01*
X116716516Y-115054158D01*
X116581671Y-115104452D01*
X116581664Y-115104456D01*
X116466455Y-115190702D01*
X116466452Y-115190705D01*
X116380206Y-115305914D01*
X116380202Y-115305921D01*
X116329910Y-115440763D01*
X116329909Y-115440767D01*
X116323500Y-115500377D01*
X116323500Y-115500384D01*
X116323500Y-115500385D01*
X116323500Y-116146120D01*
X116323501Y-116146129D01*
X116330367Y-116210001D01*
X116330367Y-116236507D01*
X116329909Y-116240766D01*
X116329909Y-116240767D01*
X116323500Y-116300377D01*
X116323500Y-116300379D01*
X116323500Y-116300383D01*
X116323500Y-116946120D01*
X116323501Y-116946129D01*
X116330367Y-117010001D01*
X116330367Y-117036507D01*
X116329909Y-117040766D01*
X116329909Y-117040767D01*
X116323500Y-117100377D01*
X116323500Y-117100379D01*
X116323500Y-117100383D01*
X116323500Y-117538906D01*
X116303815Y-117605945D01*
X116251011Y-117651700D01*
X116181853Y-117661644D01*
X116155529Y-117654848D01*
X116091917Y-117630723D01*
X116088457Y-117629290D01*
X116032687Y-117604191D01*
X116032688Y-117604191D01*
X116023001Y-117602416D01*
X116001398Y-117596394D01*
X115992188Y-117592902D01*
X115931482Y-117585530D01*
X115927783Y-117584967D01*
X115906084Y-117580991D01*
X115867636Y-117573945D01*
X115867631Y-117573945D01*
X115806598Y-117577637D01*
X115802853Y-117577750D01*
X115714982Y-117577750D01*
X115647943Y-117558065D01*
X115642097Y-117554068D01*
X115546484Y-117484601D01*
X115546479Y-117484598D01*
X115373557Y-117407607D01*
X115373552Y-117407605D01*
X115227751Y-117376615D01*
X115188396Y-117368250D01*
X114999104Y-117368250D01*
X114966647Y-117375148D01*
X114813947Y-117407605D01*
X114813942Y-117407607D01*
X114641020Y-117484598D01*
X114641015Y-117484601D01*
X114487879Y-117595861D01*
X114361217Y-117736533D01*
X114299381Y-117843636D01*
X114248813Y-117891851D01*
X114180206Y-117905073D01*
X114152990Y-117899341D01*
X114087072Y-117877498D01*
X113996547Y-117847501D01*
X113996545Y-117847500D01*
X113893760Y-117837000D01*
X113118748Y-117837000D01*
X113118730Y-117837001D01*
X113015953Y-117847500D01*
X113015950Y-117847501D01*
X112849418Y-117902685D01*
X112849413Y-117902687D01*
X112700092Y-117994789D01*
X112576038Y-118118843D01*
X112576033Y-118118849D01*
X112573991Y-118122161D01*
X112571997Y-118123953D01*
X112571557Y-118124511D01*
X112571461Y-118124435D01*
X112522041Y-118168883D01*
X112453078Y-118180102D01*
X112388997Y-118152255D01*
X112362918Y-118122156D01*
X112361069Y-118119159D01*
X112361066Y-118119155D01*
X112237095Y-117995184D01*
X112087874Y-117903143D01*
X112087869Y-117903141D01*
X111921447Y-117847994D01*
X111921440Y-117847993D01*
X111818736Y-117837500D01*
X111681250Y-117837500D01*
X111681250Y-120287499D01*
X111818722Y-120287499D01*
X111818736Y-120287498D01*
X111921447Y-120277005D01*
X112087869Y-120221858D01*
X112087874Y-120221856D01*
X112237095Y-120129815D01*
X112361068Y-120005842D01*
X112362915Y-120002848D01*
X112364719Y-120001224D01*
X112365548Y-120000177D01*
X112365726Y-120000318D01*
X112414860Y-119956121D01*
X112483823Y-119944896D01*
X112547906Y-119972736D01*
X112573993Y-120002841D01*
X112576038Y-120006156D01*
X112700094Y-120130212D01*
X112849416Y-120222314D01*
X113015953Y-120277499D01*
X113118741Y-120288000D01*
X113893758Y-120287999D01*
X113893766Y-120287998D01*
X113893769Y-120287998D01*
X113950052Y-120282248D01*
X113996547Y-120277499D01*
X114163084Y-120222314D01*
X114312406Y-120130212D01*
X114436462Y-120006156D01*
X114528564Y-119856834D01*
X114555682Y-119774994D01*
X114595455Y-119717551D01*
X114659970Y-119690728D01*
X114673388Y-119690000D01*
X114782469Y-119690000D01*
X114849508Y-119709685D01*
X114870150Y-119726319D01*
X115352124Y-120208293D01*
X115361971Y-120220583D01*
X115362189Y-120220404D01*
X115367157Y-120226410D01*
X115417757Y-120273927D01*
X115438701Y-120294870D01*
X115438707Y-120294876D01*
X115444197Y-120299133D01*
X115448648Y-120302934D01*
X115482735Y-120334945D01*
X115482737Y-120334946D01*
X115500367Y-120344637D01*
X115516635Y-120355322D01*
X115532538Y-120367658D01*
X115575445Y-120386225D01*
X115580681Y-120388789D01*
X115605589Y-120402483D01*
X115621658Y-120411318D01*
X115621660Y-120411319D01*
X115621666Y-120411322D01*
X115640740Y-120416219D01*
X115641160Y-120416327D01*
X115659564Y-120422627D01*
X115678042Y-120430624D01*
X115721538Y-120437512D01*
X115724224Y-120437938D01*
X115729929Y-120439119D01*
X115775228Y-120450750D01*
X115795358Y-120450750D01*
X115814757Y-120452277D01*
X115834633Y-120455425D01*
X115877279Y-120451393D01*
X115881179Y-120451025D01*
X115887017Y-120450750D01*
X116418442Y-120450750D01*
X116485481Y-120470435D01*
X116492753Y-120475484D01*
X116557540Y-120523984D01*
X116599411Y-120579918D01*
X116604395Y-120649609D01*
X116570909Y-120710932D01*
X116557540Y-120722516D01*
X116492753Y-120771016D01*
X116427289Y-120795434D01*
X116418442Y-120795750D01*
X109034531Y-120795750D01*
X108967492Y-120776065D01*
X108946850Y-120759431D01*
X107499919Y-119312500D01*
X110343751Y-119312500D01*
X110343751Y-119587486D01*
X110354244Y-119690197D01*
X110409391Y-119856619D01*
X110409393Y-119856624D01*
X110501434Y-120005845D01*
X110625404Y-120129815D01*
X110774625Y-120221856D01*
X110774630Y-120221858D01*
X110941052Y-120277005D01*
X110941059Y-120277006D01*
X111043769Y-120287499D01*
X111181249Y-120287499D01*
X111181250Y-120287498D01*
X111181250Y-119312500D01*
X110343751Y-119312500D01*
X107499919Y-119312500D01*
X106999918Y-118812499D01*
X110343749Y-118812499D01*
X110343750Y-118812500D01*
X111181250Y-118812500D01*
X111181250Y-117837500D01*
X111043777Y-117837500D01*
X111043762Y-117837501D01*
X110941052Y-117847994D01*
X110774630Y-117903141D01*
X110774625Y-117903143D01*
X110625404Y-117995184D01*
X110501434Y-118119154D01*
X110409393Y-118268375D01*
X110409391Y-118268380D01*
X110354244Y-118434802D01*
X110354243Y-118434809D01*
X110343750Y-118537513D01*
X110343750Y-118537526D01*
X110343749Y-118812499D01*
X106999918Y-118812499D01*
X106455585Y-118268166D01*
X103851316Y-115663897D01*
X103817833Y-115602577D01*
X103814999Y-115576228D01*
X103815000Y-110642529D01*
X103834685Y-110575490D01*
X103851314Y-110554853D01*
X105406850Y-108999318D01*
X105468173Y-108965833D01*
X105494531Y-108962999D01*
X106068752Y-108962999D01*
X106068758Y-108962999D01*
X106171547Y-108952499D01*
X106338084Y-108897314D01*
X106487406Y-108805212D01*
X106611462Y-108681156D01*
X106703564Y-108531834D01*
X106758749Y-108365297D01*
X106769250Y-108262509D01*
X106769250Y-108200000D01*
X117931751Y-108200000D01*
X117931751Y-108337486D01*
X117942244Y-108440197D01*
X117997391Y-108606619D01*
X117997393Y-108606624D01*
X118089434Y-108755845D01*
X118213404Y-108879815D01*
X118362625Y-108971856D01*
X118362630Y-108971858D01*
X118529052Y-109027005D01*
X118529059Y-109027006D01*
X118631769Y-109037499D01*
X118906748Y-109037499D01*
X118906749Y-109037498D01*
X118906750Y-108200000D01*
X117931751Y-108200000D01*
X106769250Y-108200000D01*
X106769249Y-107637492D01*
X106761586Y-107562480D01*
X106758749Y-107534703D01*
X106758748Y-107534700D01*
X106734216Y-107460668D01*
X106703564Y-107368166D01*
X106611462Y-107218844D01*
X106517799Y-107125181D01*
X106484314Y-107063858D01*
X106489298Y-106994166D01*
X106517799Y-106949819D01*
X106543527Y-106924091D01*
X106611462Y-106856156D01*
X106703564Y-106706834D01*
X106758749Y-106540297D01*
X106769250Y-106437509D01*
X106769249Y-105812492D01*
X106758749Y-105709703D01*
X106703564Y-105543166D01*
X106611462Y-105393844D01*
X106487406Y-105269788D01*
X106377802Y-105202184D01*
X106338086Y-105177687D01*
X106338081Y-105177685D01*
X106336612Y-105177198D01*
X106171547Y-105122501D01*
X106171545Y-105122500D01*
X106068766Y-105112000D01*
X106068759Y-105112000D01*
X105456347Y-105112000D01*
X105389308Y-105092315D01*
X105368666Y-105075681D01*
X104618069Y-104325084D01*
X104584584Y-104263761D01*
X104581750Y-104237403D01*
X104581750Y-102968249D01*
X104601435Y-102901210D01*
X104654239Y-102855455D01*
X104705750Y-102844249D01*
X105079121Y-102844249D01*
X105079122Y-102844249D01*
X105138733Y-102837841D01*
X105138739Y-102837838D01*
X105146275Y-102836058D01*
X105146571Y-102837311D01*
X105208313Y-102832892D01*
X105221905Y-102836882D01*
X105223877Y-102837348D01*
X105283405Y-102843749D01*
X105283422Y-102843750D01*
X105331250Y-102843750D01*
X105831250Y-102843750D01*
X105879078Y-102843750D01*
X105879094Y-102843749D01*
X105938622Y-102837348D01*
X105938629Y-102837346D01*
X106073336Y-102787104D01*
X106073343Y-102787100D01*
X106188437Y-102700940D01*
X106188440Y-102700937D01*
X106274600Y-102585843D01*
X106274605Y-102585834D01*
X106301682Y-102513236D01*
X106343552Y-102457302D01*
X106409016Y-102432884D01*
X106477289Y-102447735D01*
X106519439Y-102485445D01*
X106592755Y-102590152D01*
X106703541Y-102700937D01*
X106759849Y-102757245D01*
X106856634Y-102825015D01*
X106953415Y-102892782D01*
X106953417Y-102892783D01*
X106953420Y-102892785D01*
X107167587Y-102992653D01*
X107395842Y-103053813D01*
X107584168Y-103070289D01*
X107631249Y-103074409D01*
X107631250Y-103074409D01*
X107631251Y-103074409D01*
X107670484Y-103070976D01*
X107866658Y-103053813D01*
X108094913Y-102992653D01*
X108309079Y-102892785D01*
X108502651Y-102757245D01*
X108669745Y-102590151D01*
X108805285Y-102396579D01*
X108905153Y-102182413D01*
X108966313Y-101954158D01*
X108981750Y-101777716D01*
X108981750Y-100659784D01*
X108966313Y-100483342D01*
X108905153Y-100255087D01*
X108805285Y-100040921D01*
X108779516Y-100004118D01*
X108669744Y-99847347D01*
X108502652Y-99680256D01*
X108502645Y-99680251D01*
X108309084Y-99544717D01*
X108309080Y-99544715D01*
X108309080Y-99544714D01*
X108094913Y-99444847D01*
X108094909Y-99444846D01*
X108094905Y-99444844D01*
X107866663Y-99383688D01*
X107866653Y-99383686D01*
X107631251Y-99363091D01*
X107631249Y-99363091D01*
X107395846Y-99383686D01*
X107395836Y-99383688D01*
X107167594Y-99444844D01*
X107167585Y-99444848D01*
X106953421Y-99544714D01*
X106953419Y-99544715D01*
X106759847Y-99680255D01*
X106592758Y-99847344D01*
X106519439Y-99952055D01*
X106464862Y-99995679D01*
X106395363Y-100002872D01*
X106333009Y-99971350D01*
X106301682Y-99924263D01*
X106274605Y-99851665D01*
X106274600Y-99851656D01*
X106188440Y-99736562D01*
X106188437Y-99736559D01*
X106073343Y-99650399D01*
X106073336Y-99650395D01*
X105938629Y-99600153D01*
X105938622Y-99600151D01*
X105879094Y-99593750D01*
X105831250Y-99593750D01*
X105831250Y-102843750D01*
X105331250Y-102843750D01*
X105331250Y-102806444D01*
X105350935Y-102739405D01*
X105380940Y-102707176D01*
X105388796Y-102701296D01*
X105475046Y-102586081D01*
X105525341Y-102451233D01*
X105531750Y-102391623D01*
X105531749Y-100045878D01*
X105525341Y-99986267D01*
X105519777Y-99971350D01*
X105475047Y-99851421D01*
X105475043Y-99851414D01*
X105388797Y-99736205D01*
X105388796Y-99736204D01*
X105380935Y-99730319D01*
X105339066Y-99674383D01*
X105331250Y-99631055D01*
X105331250Y-99593750D01*
X105283405Y-99593750D01*
X105223874Y-99600151D01*
X105216323Y-99601936D01*
X105215934Y-99600292D01*
X105155598Y-99604603D01*
X105138864Y-99599689D01*
X105138741Y-99599660D01*
X105138733Y-99599659D01*
X105079123Y-99593250D01*
X105079113Y-99593250D01*
X104483379Y-99593250D01*
X104483375Y-99593251D01*
X104423765Y-99599659D01*
X104416222Y-99601442D01*
X104415876Y-99599980D01*
X104354872Y-99604334D01*
X104339849Y-99599922D01*
X104338741Y-99599660D01*
X104338733Y-99599659D01*
X104279123Y-99593250D01*
X104279113Y-99593250D01*
X103683379Y-99593250D01*
X103683375Y-99593251D01*
X103623765Y-99599659D01*
X103616222Y-99601442D01*
X103615876Y-99599980D01*
X103554872Y-99604334D01*
X103539849Y-99599922D01*
X103538741Y-99599660D01*
X103538733Y-99599659D01*
X103479123Y-99593250D01*
X103479113Y-99593250D01*
X102883379Y-99593250D01*
X102883375Y-99593251D01*
X102823765Y-99599659D01*
X102816222Y-99601442D01*
X102815876Y-99599980D01*
X102754872Y-99604334D01*
X102739849Y-99599922D01*
X102738741Y-99599660D01*
X102738733Y-99599659D01*
X102679123Y-99593250D01*
X102679113Y-99593250D01*
X102083379Y-99593250D01*
X102083373Y-99593251D01*
X102023766Y-99599658D01*
X101888921Y-99649952D01*
X101888914Y-99649956D01*
X101773705Y-99736202D01*
X101773702Y-99736205D01*
X101687456Y-99851414D01*
X101687453Y-99851419D01*
X101660469Y-99923768D01*
X101618597Y-99979701D01*
X101553133Y-100004118D01*
X101484860Y-99989266D01*
X101442712Y-99951557D01*
X101369744Y-99847347D01*
X101202652Y-99680256D01*
X101202645Y-99680251D01*
X101009084Y-99544717D01*
X101009080Y-99544715D01*
X101009079Y-99544714D01*
X100794913Y-99444847D01*
X100794909Y-99444846D01*
X100794905Y-99444844D01*
X100566663Y-99383688D01*
X100566653Y-99383686D01*
X100331251Y-99363091D01*
X100331249Y-99363091D01*
X100095846Y-99383686D01*
X100095836Y-99383688D01*
X99867594Y-99444844D01*
X99867585Y-99444848D01*
X99653421Y-99544714D01*
X99653419Y-99544715D01*
X99459847Y-99680255D01*
X99292755Y-99847347D01*
X99157215Y-100040919D01*
X99157214Y-100040921D01*
X99057348Y-100255085D01*
X99057344Y-100255094D01*
X98996188Y-100483336D01*
X98996186Y-100483346D01*
X98980750Y-100659784D01*
X98980750Y-101777716D01*
X98996186Y-101954153D01*
X98996188Y-101954163D01*
X99057344Y-102182405D01*
X99057346Y-102182409D01*
X99057347Y-102182413D01*
X99107281Y-102289496D01*
X99157214Y-102396578D01*
X99157215Y-102396580D01*
X99292755Y-102590152D01*
X99403541Y-102700937D01*
X99459849Y-102757245D01*
X99556634Y-102825015D01*
X99653415Y-102892782D01*
X99653417Y-102892783D01*
X99653420Y-102892785D01*
X99867587Y-102992653D01*
X100095842Y-103053813D01*
X100284168Y-103070289D01*
X100331249Y-103074409D01*
X100331250Y-103074409D01*
X100331251Y-103074409D01*
X100370484Y-103070976D01*
X100566658Y-103053813D01*
X100794913Y-102992653D01*
X101009079Y-102892785D01*
X101202651Y-102757245D01*
X101369745Y-102590151D01*
X101442713Y-102485940D01*
X101497288Y-102442317D01*
X101566786Y-102435123D01*
X101629141Y-102466645D01*
X101660468Y-102513730D01*
X101682431Y-102572613D01*
X101690250Y-102615948D01*
X101690250Y-102862415D01*
X101670565Y-102929454D01*
X101653931Y-102950096D01*
X97952480Y-106651546D01*
X97949754Y-106654113D01*
X97903985Y-106694661D01*
X97903977Y-106694670D01*
X97869235Y-106745003D01*
X97867015Y-106748019D01*
X97829313Y-106796144D01*
X97829311Y-106796146D01*
X97825271Y-106805123D01*
X97814253Y-106824658D01*
X97808655Y-106832769D01*
X97786968Y-106889950D01*
X97785536Y-106893408D01*
X97760442Y-106949166D01*
X97758666Y-106958856D01*
X97752645Y-106980453D01*
X97749152Y-106989664D01*
X97749152Y-106989665D01*
X97741780Y-107050374D01*
X97741217Y-107054076D01*
X97730195Y-107114219D01*
X97730195Y-107114222D01*
X97733887Y-107175256D01*
X97734000Y-107179001D01*
X97734000Y-108679198D01*
X97714315Y-108746237D01*
X97661511Y-108791992D01*
X97649004Y-108796904D01*
X97480668Y-108852685D01*
X97480663Y-108852687D01*
X97331342Y-108944789D01*
X97207289Y-109068842D01*
X97115187Y-109218163D01*
X97115185Y-109218168D01*
X97096491Y-109274584D01*
X97060001Y-109384703D01*
X97060001Y-109384704D01*
X97060000Y-109384704D01*
X97049500Y-109487483D01*
X97049500Y-110337501D01*
X97049501Y-110337519D01*
X97060000Y-110440296D01*
X97060001Y-110440299D01*
X97115185Y-110606831D01*
X97115187Y-110606836D01*
X97130304Y-110631344D01*
X97207288Y-110756156D01*
X97331344Y-110880212D01*
X97480666Y-110972314D01*
X97647203Y-111027499D01*
X97749991Y-111038000D01*
X99100008Y-111037999D01*
X99202797Y-111027499D01*
X99369334Y-110972314D01*
X99518656Y-110880212D01*
X99642712Y-110756156D01*
X99734814Y-110606834D01*
X99789999Y-110440297D01*
X99800500Y-110337509D01*
X99800499Y-109487492D01*
X99794309Y-109426900D01*
X99789999Y-109384703D01*
X99789998Y-109384700D01*
X99768414Y-109319564D01*
X99734814Y-109218166D01*
X99642712Y-109068844D01*
X99518656Y-108944788D01*
X99399295Y-108871166D01*
X99369336Y-108852687D01*
X99369331Y-108852685D01*
X99200996Y-108796904D01*
X99143551Y-108757131D01*
X99116728Y-108692615D01*
X99116000Y-108679198D01*
X99116000Y-107493833D01*
X99135685Y-107426794D01*
X99152314Y-107406157D01*
X101009720Y-105548751D01*
X101071041Y-105515268D01*
X101140733Y-105520252D01*
X101196666Y-105562124D01*
X101221083Y-105627588D01*
X101215106Y-105675436D01*
X101203750Y-105709705D01*
X101193250Y-105812483D01*
X101193250Y-106437501D01*
X101193251Y-106437519D01*
X101203750Y-106540296D01*
X101203751Y-106540299D01*
X101258935Y-106706831D01*
X101258937Y-106706836D01*
X101282479Y-106745003D01*
X101336612Y-106832768D01*
X101351039Y-106856157D01*
X101444701Y-106949819D01*
X101478186Y-107011142D01*
X101473202Y-107080834D01*
X101444701Y-107125181D01*
X101351039Y-107218842D01*
X101258937Y-107368163D01*
X101258935Y-107368168D01*
X101234313Y-107442472D01*
X101203751Y-107534703D01*
X101203751Y-107534704D01*
X101203750Y-107534704D01*
X101193250Y-107637483D01*
X101193250Y-108262501D01*
X101193251Y-108262519D01*
X101203750Y-108365296D01*
X101203751Y-108365299D01*
X101228604Y-108440299D01*
X101258936Y-108531834D01*
X101351038Y-108681156D01*
X101475094Y-108805212D01*
X101624416Y-108897314D01*
X101681255Y-108916148D01*
X101738698Y-108955918D01*
X101765522Y-109020434D01*
X101766250Y-109033853D01*
X101766250Y-116598282D01*
X101764522Y-116613931D01*
X101764804Y-116613958D01*
X101764069Y-116621725D01*
X101766250Y-116691109D01*
X101766250Y-116720727D01*
X101767121Y-116727630D01*
X101767579Y-116733449D01*
X101769048Y-116780192D01*
X101774666Y-116799525D01*
X101778612Y-116818579D01*
X101781133Y-116838537D01*
X101781136Y-116838549D01*
X101798345Y-116882015D01*
X101800237Y-116887543D01*
X101813280Y-116932437D01*
X101813280Y-116932438D01*
X101823527Y-116949765D01*
X101832085Y-116967235D01*
X101839495Y-116985951D01*
X101866979Y-117023779D01*
X101870187Y-117028663D01*
X101893984Y-117068902D01*
X101893990Y-117068910D01*
X101908219Y-117083138D01*
X101920856Y-117097934D01*
X101922632Y-117100378D01*
X101932684Y-117114214D01*
X101932686Y-117114215D01*
X101932687Y-117114217D01*
X101960730Y-117137416D01*
X101968707Y-117144015D01*
X101973018Y-117147937D01*
X104721045Y-119895964D01*
X107456062Y-122630981D01*
X107470936Y-122648959D01*
X107475565Y-122655771D01*
X107518787Y-122693877D01*
X107521608Y-122696527D01*
X107534198Y-122709118D01*
X107548282Y-122720043D01*
X107551281Y-122722525D01*
X107594489Y-122760618D01*
X107594492Y-122760619D01*
X107594494Y-122760621D01*
X107601830Y-122764359D01*
X107621533Y-122776862D01*
X107628038Y-122781908D01*
X107680904Y-122804785D01*
X107684421Y-122806440D01*
X107735753Y-122832595D01*
X107743785Y-122834390D01*
X107765982Y-122841603D01*
X107773538Y-122844873D01*
X107773539Y-122844873D01*
X107773541Y-122844874D01*
X107830474Y-122853890D01*
X107834254Y-122854611D01*
X107890477Y-122867180D01*
X107898709Y-122866921D01*
X107921998Y-122868386D01*
X107930133Y-122869675D01*
X107930134Y-122869674D01*
X107930136Y-122869675D01*
X107930137Y-122869675D01*
X107972921Y-122865629D01*
X107987475Y-122864253D01*
X107991342Y-122864010D01*
X108048943Y-122862201D01*
X108056850Y-122859903D01*
X108079777Y-122855528D01*
X108087973Y-122854754D01*
X108087977Y-122854752D01*
X108087981Y-122854752D01*
X108092524Y-122853737D01*
X108119575Y-122850750D01*
X113997665Y-122850750D01*
X114064704Y-122870435D01*
X114110459Y-122923239D01*
X114120403Y-122992397D01*
X114091378Y-123055953D01*
X114085346Y-123062431D01*
X113653345Y-123494431D01*
X113592022Y-123527916D01*
X113565664Y-123530750D01*
X112981248Y-123530750D01*
X112981230Y-123530751D01*
X112878453Y-123541250D01*
X112878450Y-123541251D01*
X112711918Y-123596435D01*
X112711913Y-123596437D01*
X112562592Y-123688539D01*
X112438540Y-123812591D01*
X112438538Y-123812593D01*
X112438538Y-123812594D01*
X112403840Y-123868848D01*
X112351894Y-123915571D01*
X112298303Y-123927750D01*
X105906334Y-123927750D01*
X105839295Y-123908065D01*
X105818653Y-123891431D01*
X99152319Y-117225097D01*
X99118834Y-117163774D01*
X99116000Y-117137416D01*
X99116000Y-113945802D01*
X99135685Y-113878763D01*
X99188489Y-113833008D01*
X99200996Y-113828096D01*
X99229958Y-113818498D01*
X99369334Y-113772314D01*
X99518656Y-113680212D01*
X99642712Y-113556156D01*
X99734814Y-113406834D01*
X99789999Y-113240297D01*
X99800500Y-113137509D01*
X99800499Y-112287492D01*
X99800451Y-112287027D01*
X99789999Y-112184703D01*
X99789998Y-112184700D01*
X99777323Y-112146449D01*
X99734814Y-112018166D01*
X99642712Y-111868844D01*
X99518656Y-111744788D01*
X99369334Y-111652686D01*
X99202797Y-111597501D01*
X99202795Y-111597500D01*
X99100010Y-111587000D01*
X97749998Y-111587000D01*
X97749981Y-111587001D01*
X97647203Y-111597500D01*
X97647200Y-111597501D01*
X97480668Y-111652685D01*
X97480663Y-111652687D01*
X97331342Y-111744789D01*
X97207289Y-111868842D01*
X97115187Y-112018163D01*
X97115185Y-112018166D01*
X97115186Y-112018166D01*
X97060001Y-112184703D01*
X97060001Y-112184704D01*
X97060000Y-112184704D01*
X97049500Y-112287483D01*
X97049500Y-113137501D01*
X97049501Y-113137519D01*
X97060000Y-113240296D01*
X97060001Y-113240299D01*
X97089185Y-113328369D01*
X97115186Y-113406834D01*
X97207288Y-113556156D01*
X97331344Y-113680212D01*
X97480666Y-113772314D01*
X97647203Y-113827499D01*
X97647206Y-113827499D01*
X97649004Y-113828095D01*
X97706449Y-113867867D01*
X97733272Y-113932383D01*
X97734000Y-113945801D01*
X97734000Y-117452247D01*
X97733887Y-117455992D01*
X97732157Y-117484601D01*
X97730195Y-117517028D01*
X97738479Y-117562236D01*
X97741217Y-117577174D01*
X97741780Y-117580876D01*
X97749152Y-117641582D01*
X97752644Y-117650792D01*
X97758666Y-117672395D01*
X97760441Y-117682081D01*
X97785540Y-117737851D01*
X97786969Y-117741302D01*
X97788802Y-117746132D01*
X97808653Y-117798478D01*
X97808656Y-117798482D01*
X97814250Y-117806586D01*
X97825274Y-117826134D01*
X97829308Y-117835099D01*
X97829314Y-117835108D01*
X97867018Y-117883234D01*
X97869238Y-117886251D01*
X97903980Y-117936583D01*
X97949753Y-117977135D01*
X97952464Y-117979686D01*
X105064070Y-125091292D01*
X105066606Y-125093986D01*
X105079949Y-125109047D01*
X105107167Y-125139770D01*
X105157505Y-125174517D01*
X105160505Y-125176724D01*
X105208644Y-125214438D01*
X105217615Y-125218475D01*
X105237170Y-125229504D01*
X105245268Y-125235094D01*
X105302445Y-125256778D01*
X105305899Y-125258209D01*
X105361665Y-125283307D01*
X105371346Y-125285081D01*
X105392968Y-125291109D01*
X105402166Y-125294597D01*
X105402167Y-125294598D01*
X105418970Y-125296638D01*
X105462873Y-125301968D01*
X105466568Y-125302531D01*
X105494405Y-125307632D01*
X105526722Y-125313555D01*
X105526722Y-125313554D01*
X105526723Y-125313555D01*
X105587758Y-125309863D01*
X105591503Y-125309750D01*
X112298303Y-125309750D01*
X112365342Y-125329435D01*
X112403840Y-125368650D01*
X112438538Y-125424906D01*
X112562594Y-125548962D01*
X112565878Y-125550987D01*
X112565903Y-125551003D01*
X112567695Y-125552996D01*
X112568261Y-125553443D01*
X112568184Y-125553539D01*
X112612629Y-125602949D01*
X112623853Y-125671911D01*
X112596011Y-125735994D01*
X112565915Y-125762076D01*
X112562910Y-125763929D01*
X112562905Y-125763933D01*
X112438934Y-125887904D01*
X112346893Y-126037125D01*
X112346891Y-126037130D01*
X112291744Y-126203552D01*
X112291743Y-126203559D01*
X112281250Y-126306263D01*
X112281250Y-126443750D01*
X114731249Y-126443750D01*
X114731249Y-126306278D01*
X114731248Y-126306263D01*
X114720755Y-126203552D01*
X114665608Y-126037130D01*
X114665606Y-126037125D01*
X114573565Y-125887904D01*
X114449594Y-125763933D01*
X114449591Y-125763931D01*
X114446589Y-125762079D01*
X114444963Y-125760271D01*
X114443927Y-125759452D01*
X114444067Y-125759274D01*
X114399867Y-125710130D01*
X114388647Y-125641167D01*
X114416493Y-125577086D01*
X114446594Y-125551004D01*
X114449906Y-125548962D01*
X114573962Y-125424906D01*
X114666064Y-125275584D01*
X114721249Y-125109047D01*
X114731750Y-125006259D01*
X114731749Y-124739581D01*
X114751433Y-124672544D01*
X114804237Y-124626789D01*
X114873396Y-124616845D01*
X114936951Y-124645870D01*
X114943430Y-124651902D01*
X118604858Y-128313331D01*
X118604886Y-128313357D01*
X118633218Y-128341689D01*
X118666044Y-128361533D01*
X118672202Y-128365784D01*
X118702395Y-128389438D01*
X118737362Y-128405175D01*
X118743987Y-128408651D01*
X118776822Y-128428501D01*
X118806871Y-128437864D01*
X118813439Y-128439911D01*
X118820447Y-128442569D01*
X118855415Y-128458307D01*
X118893142Y-128465220D01*
X118900412Y-128467012D01*
X118906291Y-128468844D01*
X118937030Y-128478423D01*
X118975313Y-128480738D01*
X118982747Y-128481642D01*
X118995378Y-128483956D01*
X119020472Y-128488555D01*
X119052340Y-128486626D01*
X119058751Y-128486239D01*
X119066247Y-128486239D01*
X119073619Y-128486684D01*
X119104528Y-128488555D01*
X119142249Y-128481642D01*
X119149683Y-128480738D01*
X119187970Y-128478423D01*
X119224587Y-128467012D01*
X119231848Y-128465222D01*
X119269585Y-128458307D01*
X119304567Y-128442561D01*
X119311546Y-128439914D01*
X119348177Y-128428501D01*
X119381003Y-128408655D01*
X119387634Y-128405176D01*
X119387636Y-128405175D01*
X119422605Y-128389438D01*
X119452806Y-128365776D01*
X119458941Y-128361540D01*
X119491782Y-128341689D01*
X119516179Y-128317290D01*
X119516187Y-128317284D01*
X119521554Y-128311916D01*
X119521557Y-128311915D01*
X119746558Y-128086912D01*
X119749234Y-128084394D01*
X119795020Y-128043833D01*
X119829759Y-127993504D01*
X119831962Y-127990508D01*
X119869688Y-127942356D01*
X119873729Y-127933376D01*
X119884750Y-127913834D01*
X119890344Y-127905732D01*
X119912031Y-127848546D01*
X119913451Y-127845115D01*
X119938557Y-127789335D01*
X119940330Y-127779653D01*
X119946356Y-127758038D01*
X119949848Y-127748832D01*
X119957219Y-127688120D01*
X119957781Y-127684429D01*
X119968804Y-127624282D01*
X119968805Y-127624276D01*
X119965113Y-127563242D01*
X119965000Y-127559497D01*
X119965000Y-127120861D01*
X119965000Y-126634054D01*
X119984683Y-126567019D01*
X120037487Y-126521264D01*
X120106646Y-126511320D01*
X120170202Y-126540345D01*
X120188265Y-126559746D01*
X120241453Y-126630795D01*
X120241454Y-126630796D01*
X120274309Y-126655391D01*
X120274310Y-126655392D01*
X120316181Y-126711326D01*
X120323999Y-126754657D01*
X120323999Y-126773249D01*
X120324000Y-126773250D01*
X120396828Y-126773250D01*
X120396839Y-126773249D01*
X120458395Y-126766630D01*
X120484909Y-126766630D01*
X120491514Y-126767340D01*
X120491517Y-126767341D01*
X120551127Y-126773750D01*
X121196872Y-126773749D01*
X121256483Y-126767341D01*
X121256487Y-126767339D01*
X121260743Y-126766882D01*
X121287253Y-126766882D01*
X121291514Y-126767340D01*
X121291517Y-126767341D01*
X121351127Y-126773750D01*
X121996872Y-126773749D01*
X122056483Y-126767341D01*
X122056487Y-126767339D01*
X122060743Y-126766882D01*
X122087253Y-126766882D01*
X122091514Y-126767340D01*
X122091517Y-126767341D01*
X122151127Y-126773750D01*
X122796872Y-126773749D01*
X122856483Y-126767341D01*
X122856487Y-126767339D01*
X122860743Y-126766882D01*
X122887253Y-126766882D01*
X122891514Y-126767340D01*
X122891517Y-126767341D01*
X122951127Y-126773750D01*
X123596872Y-126773749D01*
X123656483Y-126767341D01*
X123656487Y-126767339D01*
X123660743Y-126766882D01*
X123687253Y-126766882D01*
X123691514Y-126767340D01*
X123691517Y-126767341D01*
X123751127Y-126773750D01*
X124396872Y-126773749D01*
X124456483Y-126767341D01*
X124456487Y-126767339D01*
X124460743Y-126766882D01*
X124487253Y-126766882D01*
X124491514Y-126767340D01*
X124491517Y-126767341D01*
X124551127Y-126773750D01*
X125196872Y-126773749D01*
X125256483Y-126767341D01*
X125256487Y-126767339D01*
X125260743Y-126766882D01*
X125287253Y-126766882D01*
X125291514Y-126767340D01*
X125291517Y-126767341D01*
X125351127Y-126773750D01*
X125996872Y-126773749D01*
X126056483Y-126767341D01*
X126056483Y-126767340D01*
X126063096Y-126766630D01*
X126089607Y-126766631D01*
X126151157Y-126773249D01*
X126151172Y-126773250D01*
X126224000Y-126773250D01*
X126224000Y-126754659D01*
X126243685Y-126687620D01*
X126273691Y-126655391D01*
X126302189Y-126634058D01*
X126306546Y-126630796D01*
X126359733Y-126559747D01*
X126415665Y-126517876D01*
X126485356Y-126512892D01*
X126546680Y-126546376D01*
X126580165Y-126607699D01*
X126582999Y-126634058D01*
X126582999Y-127905268D01*
X126563314Y-127972307D01*
X126510510Y-128018062D01*
X126458636Y-128028008D01*
X126458636Y-128029250D01*
X126318000Y-128029250D01*
X126318000Y-130479249D01*
X126455472Y-130479249D01*
X126455486Y-130479248D01*
X126558197Y-130468755D01*
X126724619Y-130413608D01*
X126724624Y-130413606D01*
X126873845Y-130321565D01*
X126997818Y-130197592D01*
X126999665Y-130194598D01*
X127001469Y-130192974D01*
X127002298Y-130191927D01*
X127002476Y-130192068D01*
X127051610Y-130147871D01*
X127120573Y-130136646D01*
X127184656Y-130164486D01*
X127210743Y-130194591D01*
X127212788Y-130197906D01*
X127336844Y-130321962D01*
X127486166Y-130414064D01*
X127652703Y-130469249D01*
X127755491Y-130479750D01*
X128530508Y-130479749D01*
X128530516Y-130479748D01*
X128530519Y-130479748D01*
X128586802Y-130473998D01*
X128633297Y-130469249D01*
X128799834Y-130414064D01*
X128949156Y-130321962D01*
X129073212Y-130197906D01*
X129165314Y-130048584D01*
X129165385Y-130048369D01*
X129171392Y-130030244D01*
X129211165Y-129972800D01*
X129275682Y-129945978D01*
X129289097Y-129945250D01*
X129415877Y-129945250D01*
X129482916Y-129964935D01*
X129508027Y-129986278D01*
X129569123Y-130054133D01*
X129569130Y-130054139D01*
X129722265Y-130165398D01*
X129722270Y-130165401D01*
X129895192Y-130242392D01*
X129895197Y-130242394D01*
X130080354Y-130281750D01*
X130080355Y-130281750D01*
X130269644Y-130281750D01*
X130269646Y-130281750D01*
X130454803Y-130242394D01*
X130627730Y-130165401D01*
X130780871Y-130054138D01*
X130907533Y-129913466D01*
X131002179Y-129749534D01*
X131060674Y-129569506D01*
X131080460Y-129381250D01*
X131060674Y-129192994D01*
X131002179Y-129012966D01*
X130907533Y-128849034D01*
X130780871Y-128708362D01*
X130780870Y-128708361D01*
X130627734Y-128597101D01*
X130627729Y-128597098D01*
X130454807Y-128520107D01*
X130454802Y-128520105D01*
X130294402Y-128486012D01*
X130269646Y-128480750D01*
X130080354Y-128480750D01*
X130055598Y-128486012D01*
X129895197Y-128520105D01*
X129895193Y-128520107D01*
X129822374Y-128552529D01*
X129771938Y-128563250D01*
X129289097Y-128563250D01*
X129222058Y-128543565D01*
X129176303Y-128490761D01*
X129171392Y-128478256D01*
X129165315Y-128459918D01*
X129165314Y-128459916D01*
X129073212Y-128310594D01*
X128949156Y-128186538D01*
X128799834Y-128094436D01*
X128633297Y-128039251D01*
X128633295Y-128039250D01*
X128530516Y-128028750D01*
X128530509Y-128028750D01*
X128089000Y-128028750D01*
X128021961Y-128009065D01*
X127976206Y-127956261D01*
X127965000Y-127904750D01*
X127965000Y-126812500D01*
X131356251Y-126812500D01*
X131356251Y-126874986D01*
X131366744Y-126977697D01*
X131421891Y-127144119D01*
X131421893Y-127144124D01*
X131513934Y-127293345D01*
X131637904Y-127417315D01*
X131787125Y-127509356D01*
X131787130Y-127509358D01*
X131953552Y-127564505D01*
X131953559Y-127564506D01*
X132056269Y-127574999D01*
X132306248Y-127574999D01*
X132306249Y-127574998D01*
X132306250Y-126812500D01*
X132806250Y-126812500D01*
X132806250Y-127574999D01*
X133056222Y-127574999D01*
X133056236Y-127574998D01*
X133158947Y-127564505D01*
X133325369Y-127509358D01*
X133325374Y-127509356D01*
X133474595Y-127417315D01*
X133598565Y-127293345D01*
X133690606Y-127144124D01*
X133690608Y-127144119D01*
X133745755Y-126977697D01*
X133745756Y-126977690D01*
X133756249Y-126874986D01*
X133756250Y-126874973D01*
X133756250Y-126812500D01*
X132806250Y-126812500D01*
X132306250Y-126812500D01*
X131356251Y-126812500D01*
X127965000Y-126812500D01*
X127965000Y-126593983D01*
X127984685Y-126526944D01*
X127989734Y-126519671D01*
X127992796Y-126515581D01*
X128043091Y-126380733D01*
X128049500Y-126321123D01*
X128049499Y-124725378D01*
X128049499Y-124725377D01*
X128049499Y-124722749D01*
X128069184Y-124655710D01*
X128121987Y-124609955D01*
X128173499Y-124598749D01*
X128176118Y-124598749D01*
X128176127Y-124598750D01*
X129771872Y-124598749D01*
X129831483Y-124592341D01*
X129966331Y-124542046D01*
X130013427Y-124506790D01*
X130055247Y-124475484D01*
X130120711Y-124451066D01*
X130129558Y-124450750D01*
X131231750Y-124450750D01*
X131298789Y-124470435D01*
X131344544Y-124523239D01*
X131355750Y-124574750D01*
X131355750Y-125050001D01*
X131355751Y-125050019D01*
X131366250Y-125152796D01*
X131366251Y-125152799D01*
X131421435Y-125319331D01*
X131421437Y-125319336D01*
X131513539Y-125468657D01*
X131607554Y-125562672D01*
X131641039Y-125623995D01*
X131636055Y-125693687D01*
X131607555Y-125738034D01*
X131513932Y-125831657D01*
X131421893Y-125980875D01*
X131421891Y-125980880D01*
X131366744Y-126147302D01*
X131366743Y-126147309D01*
X131356250Y-126250013D01*
X131356250Y-126312500D01*
X133756249Y-126312500D01*
X133756249Y-126250028D01*
X133756248Y-126250013D01*
X133745755Y-126147302D01*
X133690608Y-125980880D01*
X133690606Y-125980875D01*
X133598565Y-125831654D01*
X133504945Y-125738034D01*
X133471460Y-125676711D01*
X133476444Y-125607019D01*
X133504941Y-125562676D01*
X133598962Y-125468656D01*
X133691064Y-125319334D01*
X133746249Y-125152797D01*
X133756750Y-125050009D01*
X133756749Y-124424992D01*
X133755800Y-124415706D01*
X133746249Y-124322203D01*
X133746248Y-124322200D01*
X133732137Y-124279617D01*
X133691064Y-124155666D01*
X133598962Y-124006344D01*
X133474906Y-123882288D01*
X133382138Y-123825068D01*
X133325586Y-123790187D01*
X133325581Y-123790185D01*
X133324112Y-123789698D01*
X133159047Y-123735001D01*
X133159045Y-123735000D01*
X133056266Y-123724500D01*
X133056259Y-123724500D01*
X132482031Y-123724500D01*
X132414992Y-123704815D01*
X132394350Y-123688181D01*
X132144376Y-123438207D01*
X132134531Y-123425918D01*
X132134313Y-123426099D01*
X132129340Y-123420088D01*
X132078741Y-123372572D01*
X132068268Y-123362099D01*
X132057797Y-123351627D01*
X132052296Y-123347361D01*
X132047848Y-123343562D01*
X132013768Y-123311558D01*
X132013763Y-123311554D01*
X131996122Y-123301856D01*
X131979857Y-123291172D01*
X131963963Y-123278843D01*
X131963962Y-123278842D01*
X131948804Y-123272282D01*
X131921054Y-123260273D01*
X131915807Y-123257703D01*
X131874837Y-123235179D01*
X131874828Y-123235176D01*
X131855334Y-123230170D01*
X131836933Y-123223870D01*
X131818459Y-123215876D01*
X131818452Y-123215874D01*
X131772287Y-123208563D01*
X131766563Y-123207378D01*
X131721279Y-123195750D01*
X131721272Y-123195750D01*
X131701142Y-123195750D01*
X131681743Y-123194223D01*
X131661868Y-123191075D01*
X131661867Y-123191075D01*
X131615321Y-123195475D01*
X131609483Y-123195750D01*
X130348500Y-123195750D01*
X130281461Y-123176065D01*
X130235706Y-123123261D01*
X130224500Y-123071750D01*
X130224499Y-122700380D01*
X130224499Y-122700378D01*
X130218091Y-122640767D01*
X130218090Y-122640764D01*
X130217632Y-122636503D01*
X130217633Y-122609994D01*
X130218367Y-122603164D01*
X130224500Y-122546123D01*
X130224499Y-122174749D01*
X130244183Y-122107711D01*
X130296987Y-122061956D01*
X130348499Y-122050750D01*
X132224469Y-122050750D01*
X132291508Y-122070435D01*
X132312150Y-122087069D01*
X134107431Y-123882350D01*
X134140916Y-123943673D01*
X134143750Y-123970031D01*
X134143750Y-132432250D01*
X134124065Y-132499289D01*
X134071261Y-132545044D01*
X134019750Y-132556250D01*
X107011236Y-132556250D01*
X106944197Y-132536565D01*
X106898442Y-132483761D01*
X106887947Y-132418994D01*
X106894249Y-132360380D01*
X106894250Y-132360373D01*
X106894249Y-131164628D01*
X106887841Y-131105017D01*
X106837634Y-130970406D01*
X106837547Y-130970171D01*
X106837543Y-130970164D01*
X106751297Y-130854955D01*
X106751294Y-130854952D01*
X106636085Y-130768706D01*
X106636078Y-130768702D01*
X106501232Y-130718408D01*
X106501233Y-130718408D01*
X106441633Y-130712001D01*
X106441631Y-130712000D01*
X106441623Y-130712000D01*
X106441614Y-130712000D01*
X104545879Y-130712000D01*
X104545873Y-130712001D01*
X104486266Y-130718408D01*
X104351421Y-130768702D01*
X104351414Y-130768706D01*
X104236205Y-130854952D01*
X104236202Y-130854955D01*
X104149956Y-130970164D01*
X104149952Y-130970171D01*
X104099658Y-131105017D01*
X104093251Y-131164616D01*
X104093251Y-131164623D01*
X104093250Y-131164635D01*
X104093250Y-132360370D01*
X104093251Y-132360374D01*
X104099553Y-132418996D01*
X104087146Y-132487756D01*
X104039535Y-132538893D01*
X103976263Y-132556250D01*
X100810732Y-132556250D01*
X100743693Y-132536565D01*
X100697938Y-132483761D01*
X100687443Y-132418994D01*
X100693749Y-132360344D01*
X100693750Y-132360327D01*
X100693750Y-132012500D01*
X97893750Y-132012500D01*
X97893750Y-132360344D01*
X97900057Y-132418994D01*
X97887653Y-132487753D01*
X97840043Y-132538891D01*
X97776768Y-132556250D01*
X96888862Y-132556250D01*
X96821823Y-132536565D01*
X96801181Y-132519931D01*
X96080069Y-131798819D01*
X96046584Y-131737496D01*
X96043750Y-131711138D01*
X96043750Y-131512500D01*
X97893750Y-131512500D01*
X99043750Y-131512500D01*
X99043750Y-130712500D01*
X99543750Y-130712500D01*
X99543750Y-131512500D01*
X100693750Y-131512500D01*
X100693750Y-131164672D01*
X100693749Y-131164655D01*
X100687348Y-131105127D01*
X100687346Y-131105120D01*
X100637104Y-130970413D01*
X100637100Y-130970406D01*
X100550940Y-130855312D01*
X100550937Y-130855309D01*
X100435843Y-130769149D01*
X100435836Y-130769145D01*
X100301129Y-130718903D01*
X100301122Y-130718901D01*
X100241594Y-130712500D01*
X99543750Y-130712500D01*
X99043750Y-130712500D01*
X98345905Y-130712500D01*
X98286377Y-130718901D01*
X98286370Y-130718903D01*
X98151663Y-130769145D01*
X98151656Y-130769149D01*
X98036562Y-130855309D01*
X98036559Y-130855312D01*
X97950399Y-130970406D01*
X97950395Y-130970413D01*
X97900153Y-131105120D01*
X97900151Y-131105127D01*
X97893750Y-131164655D01*
X97893750Y-131512500D01*
X96043750Y-131512500D01*
X96043750Y-129504250D01*
X124980501Y-129504250D01*
X124980501Y-129779236D01*
X124990994Y-129881947D01*
X125046141Y-130048369D01*
X125046143Y-130048374D01*
X125138184Y-130197595D01*
X125262154Y-130321565D01*
X125411375Y-130413606D01*
X125411380Y-130413608D01*
X125577802Y-130468755D01*
X125577809Y-130468756D01*
X125680519Y-130479249D01*
X125817999Y-130479249D01*
X125818000Y-130479248D01*
X125818000Y-129504250D01*
X124980501Y-129504250D01*
X96043750Y-129504250D01*
X96043750Y-128660370D01*
X97893250Y-128660370D01*
X97893251Y-128660376D01*
X97899658Y-128719983D01*
X97949952Y-128854828D01*
X97949956Y-128854835D01*
X98036202Y-128970044D01*
X98036205Y-128970047D01*
X98151414Y-129056293D01*
X98151421Y-129056297D01*
X98286267Y-129106591D01*
X98286266Y-129106591D01*
X98293194Y-129107335D01*
X98345877Y-129113000D01*
X100241622Y-129112999D01*
X100301233Y-129106591D01*
X100436081Y-129056296D01*
X100551296Y-128970046D01*
X100637546Y-128854831D01*
X100687841Y-128719983D01*
X100694250Y-128660373D01*
X100694250Y-128660370D01*
X104093250Y-128660370D01*
X104093251Y-128660376D01*
X104099658Y-128719983D01*
X104149952Y-128854828D01*
X104149956Y-128854835D01*
X104236202Y-128970044D01*
X104236205Y-128970047D01*
X104351414Y-129056293D01*
X104351421Y-129056297D01*
X104486267Y-129106591D01*
X104486266Y-129106591D01*
X104493194Y-129107335D01*
X104545877Y-129113000D01*
X106441622Y-129112999D01*
X106501233Y-129106591D01*
X106636081Y-129056296D01*
X106705605Y-129004250D01*
X124980500Y-129004250D01*
X125818000Y-129004250D01*
X125817999Y-129004249D01*
X125817999Y-128029250D01*
X125680527Y-128029250D01*
X125680512Y-128029251D01*
X125577802Y-128039744D01*
X125411380Y-128094891D01*
X125411375Y-128094893D01*
X125262154Y-128186934D01*
X125138184Y-128310904D01*
X125046143Y-128460125D01*
X125046141Y-128460130D01*
X124990994Y-128626552D01*
X124990993Y-128626559D01*
X124980500Y-128729263D01*
X124980500Y-129004250D01*
X106705605Y-129004250D01*
X106751296Y-128970046D01*
X106837546Y-128854831D01*
X106869956Y-128767934D01*
X106911824Y-128712005D01*
X106977288Y-128687587D01*
X106982222Y-128687333D01*
X106986443Y-128687201D01*
X106986455Y-128687197D01*
X106987795Y-128686986D01*
X106990794Y-128687064D01*
X106994253Y-128686956D01*
X106994259Y-128687154D01*
X107032986Y-128688166D01*
X107061604Y-128694250D01*
X107061607Y-128694250D01*
X107250894Y-128694250D01*
X107250896Y-128694250D01*
X107436053Y-128654894D01*
X107608980Y-128577901D01*
X107762121Y-128466638D01*
X107888783Y-128325966D01*
X107983429Y-128162034D01*
X108041924Y-127982006D01*
X108061710Y-127793750D01*
X108041924Y-127605494D01*
X107983429Y-127425466D01*
X107888783Y-127261534D01*
X107762121Y-127120862D01*
X107762120Y-127120861D01*
X107608984Y-127009601D01*
X107608979Y-127009598D01*
X107461084Y-126943750D01*
X112281251Y-126943750D01*
X112281251Y-127081236D01*
X112291744Y-127183947D01*
X112346891Y-127350369D01*
X112346893Y-127350374D01*
X112438934Y-127499595D01*
X112562904Y-127623565D01*
X112712125Y-127715606D01*
X112712130Y-127715608D01*
X112878552Y-127770755D01*
X112878559Y-127770756D01*
X112981269Y-127781249D01*
X113256249Y-127781249D01*
X113256250Y-127781248D01*
X113256250Y-126943750D01*
X113756250Y-126943750D01*
X113756250Y-127781249D01*
X114031222Y-127781249D01*
X114031236Y-127781248D01*
X114133947Y-127770755D01*
X114300369Y-127715608D01*
X114300374Y-127715606D01*
X114449595Y-127623565D01*
X114573565Y-127499595D01*
X114665606Y-127350374D01*
X114665608Y-127350369D01*
X114720755Y-127183947D01*
X114720756Y-127183940D01*
X114731249Y-127081236D01*
X114731250Y-127081223D01*
X114731250Y-126943750D01*
X113756250Y-126943750D01*
X113256250Y-126943750D01*
X112281251Y-126943750D01*
X107461084Y-126943750D01*
X107436057Y-126932607D01*
X107436052Y-126932605D01*
X107287625Y-126901057D01*
X107250896Y-126893250D01*
X107061604Y-126893250D01*
X107029147Y-126900148D01*
X106876447Y-126932605D01*
X106876442Y-126932607D01*
X106703522Y-127009598D01*
X106703520Y-127009599D01*
X106700214Y-127012001D01*
X106680736Y-127026152D01*
X106614929Y-127049629D01*
X106564522Y-127042013D01*
X106501235Y-127018409D01*
X106501233Y-127018408D01*
X106441633Y-127012001D01*
X106441631Y-127012000D01*
X106441623Y-127012000D01*
X106441614Y-127012000D01*
X104545879Y-127012000D01*
X104545873Y-127012001D01*
X104486266Y-127018408D01*
X104351421Y-127068702D01*
X104351414Y-127068706D01*
X104236205Y-127154952D01*
X104236202Y-127154955D01*
X104149956Y-127270164D01*
X104149952Y-127270171D01*
X104099658Y-127405017D01*
X104093251Y-127464616D01*
X104093251Y-127464623D01*
X104093250Y-127464635D01*
X104093250Y-128660370D01*
X100694250Y-128660370D01*
X100694249Y-127464628D01*
X100687841Y-127405017D01*
X100667460Y-127350374D01*
X100637547Y-127270171D01*
X100637543Y-127270164D01*
X100551297Y-127154955D01*
X100551294Y-127154952D01*
X100436085Y-127068706D01*
X100436078Y-127068702D01*
X100301232Y-127018408D01*
X100301233Y-127018408D01*
X100241633Y-127012001D01*
X100241631Y-127012000D01*
X100241623Y-127012000D01*
X100241614Y-127012000D01*
X98345879Y-127012000D01*
X98345873Y-127012001D01*
X98286266Y-127018408D01*
X98151421Y-127068702D01*
X98151414Y-127068706D01*
X98036205Y-127154952D01*
X98036202Y-127154955D01*
X97949956Y-127270164D01*
X97949952Y-127270171D01*
X97899658Y-127405017D01*
X97893251Y-127464616D01*
X97893251Y-127464623D01*
X97893250Y-127464635D01*
X97893250Y-128660370D01*
X96043750Y-128660370D01*
X96043750Y-96888862D01*
X96063435Y-96821823D01*
X96080069Y-96801181D01*
X96801181Y-96080069D01*
X96862504Y-96046584D01*
X96888862Y-96043750D01*
X98856750Y-96043750D01*
X98923789Y-96063435D01*
G37*
%TD.AperFunction*%
%TD*%
M02*
