%TF.GenerationSoftware,KiCad,Pcbnew,7.0.6*%
%TF.CreationDate,2023-07-07T23:43:39+02:00*%
%TF.ProjectId,ai03-pcb-guide,61693033-2d70-4636-922d-67756964652e,rev?*%
%TF.SameCoordinates,Original*%
%TF.FileFunction,Paste,Bot*%
%TF.FilePolarity,Positive*%
%FSLAX46Y46*%
G04 Gerber Fmt 4.6, Leading zero omitted, Abs format (unit mm)*
G04 Created by KiCad (PCBNEW 7.0.6) date 2023-07-07 23:43:39*
%MOMM*%
%LPD*%
G01*
G04 APERTURE LIST*
G04 Aperture macros list*
%AMRoundRect*
0 Rectangle with rounded corners*
0 $1 Rounding radius*
0 $2 $3 $4 $5 $6 $7 $8 $9 X,Y pos of 4 corners*
0 Add a 4 corners polygon primitive as box body*
4,1,4,$2,$3,$4,$5,$6,$7,$8,$9,$2,$3,0*
0 Add four circle primitives for the rounded corners*
1,1,$1+$1,$2,$3*
1,1,$1+$1,$4,$5*
1,1,$1+$1,$6,$7*
1,1,$1+$1,$8,$9*
0 Add four rect primitives between the rounded corners*
20,1,$1+$1,$2,$3,$4,$5,0*
20,1,$1+$1,$4,$5,$6,$7,0*
20,1,$1+$1,$6,$7,$8,$9,0*
20,1,$1+$1,$8,$9,$2,$3,0*%
G04 Aperture macros list end*
%ADD10RoundRect,0.250000X0.475000X-0.337500X0.475000X0.337500X-0.475000X0.337500X-0.475000X-0.337500X0*%
%ADD11RoundRect,0.250000X-0.475000X0.337500X-0.475000X-0.337500X0.475000X-0.337500X0.475000X0.337500X0*%
%ADD12R,0.500000X2.250000*%
%ADD13RoundRect,0.225000X0.375000X-0.225000X0.375000X0.225000X-0.375000X0.225000X-0.375000X-0.225000X0*%
%ADD14RoundRect,0.250000X-0.450000X0.262500X-0.450000X-0.262500X0.450000X-0.262500X0.450000X0.262500X0*%
%ADD15RoundRect,0.250000X0.337500X0.475000X-0.337500X0.475000X-0.337500X-0.475000X0.337500X-0.475000X0*%
%ADD16R,1.500000X0.550000*%
%ADD17R,0.550000X1.500000*%
%ADD18RoundRect,0.250000X-0.625000X0.375000X-0.625000X-0.375000X0.625000X-0.375000X0.625000X0.375000X0*%
%ADD19R,1.800000X1.100000*%
%ADD20R,1.400000X1.200000*%
G04 APERTURE END LIST*
D10*
%TO.C,C2*%
X114300000Y-111368750D03*
X114300000Y-109293750D03*
%TD*%
D11*
%TO.C,C6*%
X127538750Y-105875000D03*
X127538750Y-107950000D03*
%TD*%
D10*
%TO.C,C7*%
X119156750Y-107950000D03*
X119156750Y-105875000D03*
%TD*%
D11*
%TO.C,C5*%
X113506250Y-124618750D03*
X113506250Y-126693750D03*
%TD*%
D12*
%TO.C,USB1*%
X105581250Y-101218750D03*
X104781250Y-101218750D03*
X103981250Y-101218750D03*
X103181250Y-101218750D03*
X102381250Y-101218750D03*
%TD*%
D13*
%TO.C,D4*%
X171450000Y-125412500D03*
X171450000Y-122112500D03*
%TD*%
D10*
%TO.C,C3*%
X132862500Y-116800000D03*
X132862500Y-114725000D03*
%TD*%
D13*
%TO.C,D1*%
X152400000Y-104775000D03*
X152400000Y-101475000D03*
%TD*%
D14*
%TO.C,R2*%
X105568750Y-106125000D03*
X105568750Y-107950000D03*
%TD*%
D15*
%TO.C,C1*%
X113506250Y-119062500D03*
X111431250Y-119062500D03*
%TD*%
D14*
%TO.C,R4*%
X110093750Y-109537500D03*
X110093750Y-111362500D03*
%TD*%
D13*
%TO.C,D2*%
X171450000Y-104837500D03*
X171450000Y-101537500D03*
%TD*%
D16*
%TO.C,U1*%
X117574000Y-123823250D03*
X117574000Y-123023250D03*
X117574000Y-122223250D03*
X117574000Y-121423250D03*
X117574000Y-120623250D03*
X117574000Y-119823250D03*
X117574000Y-119023250D03*
X117574000Y-118223250D03*
X117574000Y-117423250D03*
X117574000Y-116623250D03*
X117574000Y-115823250D03*
D17*
X119274000Y-114123250D03*
X120074000Y-114123250D03*
X120874000Y-114123250D03*
X121674000Y-114123250D03*
X122474000Y-114123250D03*
X123274000Y-114123250D03*
X124074000Y-114123250D03*
X124874000Y-114123250D03*
X125674000Y-114123250D03*
X126474000Y-114123250D03*
X127274000Y-114123250D03*
D16*
X128974000Y-115823250D03*
X128974000Y-116623250D03*
X128974000Y-117423250D03*
X128974000Y-118223250D03*
X128974000Y-119023250D03*
X128974000Y-119823250D03*
X128974000Y-120623250D03*
X128974000Y-121423250D03*
X128974000Y-122223250D03*
X128974000Y-123023250D03*
X128974000Y-123823250D03*
D17*
X127274000Y-125523250D03*
X126474000Y-125523250D03*
X125674000Y-125523250D03*
X124874000Y-125523250D03*
X124074000Y-125523250D03*
X123274000Y-125523250D03*
X122474000Y-125523250D03*
X121674000Y-125523250D03*
X120874000Y-125523250D03*
X120074000Y-125523250D03*
X119274000Y-125523250D03*
%TD*%
D18*
%TO.C,F1*%
X98425000Y-109912500D03*
X98425000Y-112712500D03*
%TD*%
D14*
%TO.C,R3*%
X102393750Y-106125000D03*
X102393750Y-107950000D03*
%TD*%
%TO.C,R1*%
X132556250Y-124737500D03*
X132556250Y-126562500D03*
%TD*%
D13*
%TO.C,D3*%
X152400000Y-124618750D03*
X152400000Y-121318750D03*
%TD*%
D15*
%TO.C,C4*%
X128143000Y-129254250D03*
X126068000Y-129254250D03*
%TD*%
D19*
%TO.C,SW1*%
X99293750Y-131762500D03*
X105493750Y-128062500D03*
X99293750Y-128062500D03*
X105493750Y-131762500D03*
%TD*%
D20*
%TO.C,Y1*%
X124320750Y-107530000D03*
X122120750Y-107530000D03*
X122120750Y-105830000D03*
X124320750Y-105830000D03*
%TD*%
M02*
