%TF.GenerationSoftware,KiCad,Pcbnew,7.0.6*%
%TF.CreationDate,2023-07-07T23:43:39+02:00*%
%TF.ProjectId,ai03-pcb-guide,61693033-2d70-4636-922d-67756964652e,rev?*%
%TF.SameCoordinates,Original*%
%TF.FileFunction,Copper,L1,Top*%
%TF.FilePolarity,Positive*%
%FSLAX46Y46*%
G04 Gerber Fmt 4.6, Leading zero omitted, Abs format (unit mm)*
G04 Created by KiCad (PCBNEW 7.0.6) date 2023-07-07 23:43:39*
%MOMM*%
%LPD*%
G01*
G04 APERTURE LIST*
G04 Aperture macros list*
%AMHorizOval*
0 Thick line with rounded ends*
0 $1 width*
0 $2 $3 position (X,Y) of the first rounded end (center of the circle)*
0 $4 $5 position (X,Y) of the second rounded end (center of the circle)*
0 Add line between two ends*
20,1,$1,$2,$3,$4,$5,0*
0 Add two circle primitives to create the rounded ends*
1,1,$1,$2,$3*
1,1,$1,$4,$5*%
G04 Aperture macros list end*
%TA.AperFunction,ComponentPad*%
%ADD10HorizOval,2.250000X0.655001X0.730000X-0.655001X-0.730000X0*%
%TD*%
%TA.AperFunction,ComponentPad*%
%ADD11C,2.250000*%
%TD*%
%TA.AperFunction,ComponentPad*%
%ADD12HorizOval,2.250000X0.020000X0.290000X-0.020000X-0.290000X0*%
%TD*%
%TA.AperFunction,ComponentPad*%
%ADD13O,1.700000X2.700000*%
%TD*%
%TA.AperFunction,ViaPad*%
%ADD14C,0.800000*%
%TD*%
%TA.AperFunction,Conductor*%
%ADD15C,0.381000*%
%TD*%
%TA.AperFunction,Conductor*%
%ADD16C,0.254000*%
%TD*%
G04 APERTURE END LIST*
D10*
%TO.P,MX2,1,COL*%
%TO.N,COL1*%
X160357501Y-101505000D03*
D11*
X161012500Y-100775000D03*
D12*
%TO.P,MX2,2,ROW*%
%TO.N,Net-(D2-A)*%
X166032500Y-99985000D03*
D11*
X166052500Y-99695000D03*
%TD*%
D10*
%TO.P,MX4,1,COL*%
%TO.N,COL1*%
X160357501Y-120555000D03*
D11*
X161012500Y-119825000D03*
D12*
%TO.P,MX4,2,ROW*%
%TO.N,Net-(D4-A)*%
X166032500Y-119035000D03*
D11*
X166052500Y-118745000D03*
%TD*%
D10*
%TO.P,MX3,1,COL*%
%TO.N,COL0*%
X141307501Y-120555000D03*
D11*
X141962500Y-119825000D03*
D12*
%TO.P,MX3,2,ROW*%
%TO.N,Net-(D3-A)*%
X146982500Y-119035000D03*
D11*
X147002500Y-118745000D03*
%TD*%
D10*
%TO.P,MX1,1,COL*%
%TO.N,COL0*%
X141307501Y-101505000D03*
D11*
X141962500Y-100775000D03*
D12*
%TO.P,MX1,2,ROW*%
%TO.N,Net-(D1-A)*%
X146982500Y-99985000D03*
D11*
X147002500Y-99695000D03*
%TD*%
D13*
%TO.P,USB1,6,SHIELD*%
%TO.N,unconnected-(USB1-SHIELD-Pad6)*%
X107631250Y-96718750D03*
X100331250Y-96718750D03*
X107631250Y-101218750D03*
X100331250Y-101218750D03*
%TD*%
D14*
%TO.N,+5V*%
X115093750Y-118268750D03*
X111918750Y-109537500D03*
X115093750Y-123031250D03*
X134143750Y-116681250D03*
X130175000Y-129381250D03*
%TO.N,Net-(U1-~{RESET})*%
X108743750Y-111918750D03*
X107156250Y-127793750D03*
%TD*%
D15*
%TO.N,+5V*%
X134143750Y-116681250D02*
X134143750Y-125412500D01*
X115093750Y-123031250D02*
X115093750Y-118268750D01*
X130175000Y-129381250D02*
X121443750Y-129381250D01*
X121443750Y-129381250D02*
X115093750Y-123031250D01*
X115093750Y-112712500D02*
X111918750Y-109537500D01*
X134143750Y-125412500D02*
X130175000Y-129381250D01*
X115093750Y-118268750D02*
X115093750Y-112712500D01*
D16*
%TO.N,COL0*%
X140652500Y-121285000D02*
X140652500Y-102235000D01*
%TO.N,COL1*%
X159702500Y-121285000D02*
X159702500Y-102235000D01*
%TO.N,Net-(U1-~{RESET})*%
X110331250Y-124618750D02*
X107156250Y-127793750D01*
X108743750Y-111918750D02*
X108743750Y-115093750D01*
X108743750Y-115093750D02*
X110331250Y-116681250D01*
X110331250Y-116681250D02*
X110331250Y-124618750D01*
%TD*%
M02*
